<svg width="32" height="32" viewBox="0 0 32 32" fill="none" xmlns="http://www.w3.org/2000/svg">
<g clip-path="url(#clip0)">
<path d="M22.5031 31.5312H2.42605C2.07737 31.5312 1.79468 31.2486 1.79468 30.8999V1.10012C1.79468 0.751437 2.07737 0.46875 2.42605 0.46875H22.5031C23.8978 0.46875 25.0284 1.59944 25.0284 2.99419V29.0059C25.0284 30.4006 23.8978 31.5312 22.5031 31.5312V31.5312Z" fill="#F18989"/>
<path d="M2.42605 0.46875C2.07737 0.46875 1.79468 0.751437 1.79468 1.10012V30.8999C1.79468 31.2486 2.07737 31.5313 2.42605 31.5313H4.95149V0.46875H2.42605Z" fill="#59B3F3"/>
<path d="M22.5033 0.46875H21.1143C22.509 0.46875 23.6396 1.59944 23.6396 2.99419V29.0059C23.6396 30.4006 22.5089 31.5312 21.1143 31.5312H22.5033C23.898 31.5312 25.0286 30.4006 25.0286 29.0059V2.99419C25.0286 1.59944 23.898 0.46875 22.5033 0.46875V0.46875Z" fill="#EB5757"/>
<path d="M20.8616 4.38318V11.9594H8.23451V4.38318H20.8616Z" fill="#F9F6F9"/>
<path d="M29.8055 29.8056L28.9427 31.5312L28.0799 29.8056C27.8169 29.2796 27.6799 28.6996 27.6799 28.1115V4.38306H30.2053V28.1115C30.2054 28.6996 30.0685 29.2796 29.8055 29.8056Z" fill="#A0A7AC"/>
<path d="M29.1954 4.38306V28.1115C29.1954 28.6996 29.0584 29.2796 28.7954 29.8056L28.4377 30.5209L28.9428 31.5311L29.8056 29.8056C30.0686 29.2796 30.2056 28.6996 30.2056 28.1115V4.38306H29.1954Z" fill="#697477"/>
<path d="M27.6802 0.46875H30.2056V4.38312H27.6802V0.46875Z" fill="#59B3F3"/>
<path d="M29.1956 0.46875H30.2057V4.38312H29.1956V0.46875Z" fill="#59B3F3"/>
<path d="M10.2546 7.18787H18.841C19.0999 7.18787 19.3097 6.97799 19.3097 6.71912C19.3097 6.46024 19.0999 6.25037 18.841 6.25037H10.2546C9.99576 6.25037 9.78589 6.46024 9.78589 6.71912C9.78589 6.97799 9.99576 7.18787 10.2546 7.18787Z" fill="black"/>
<path d="M10.2546 10.0922H18.841C19.0999 10.0922 19.3097 9.88229 19.3097 9.62341C19.3097 9.36454 19.0999 9.15466 18.841 9.15466H10.2546C9.99576 9.15466 9.78589 9.36454 9.78589 9.62341C9.78589 9.88229 9.99576 10.0922 10.2546 10.0922Z" fill="black"/>
<path d="M17.7049 25.1278H11.3914C11.1325 25.1278 10.9226 25.3377 10.9226 25.5966C10.9226 25.8554 11.1325 26.0653 11.3914 26.0653H17.7049C17.9637 26.0653 18.1736 25.8554 18.1736 25.5966C18.1736 25.3377 17.9638 25.1278 17.7049 25.1278Z" fill="black"/>
<path d="M17.7049 27.1481H11.3914C11.1325 27.1481 10.9226 27.3579 10.9226 27.6168C10.9226 27.8757 11.1325 28.0856 11.3914 28.0856H17.7049C17.9637 28.0856 18.1736 27.8757 18.1736 27.6168C18.1736 27.3579 17.9638 27.1481 17.7049 27.1481Z" fill="black"/>
<path d="M22.5031 0H2.42605C1.81943 0 1.32593 0.4935 1.32593 1.10012V8.5715C1.32593 8.83037 1.5358 9.04025 1.79468 9.04025C2.05355 9.04025 2.26343 8.83037 2.26343 8.5715V1.10012C2.26343 1.01044 2.33637 0.9375 2.42605 0.9375H4.48274V31.0625H2.42605C2.33637 31.0625 2.26343 30.9896 2.26343 30.8999V10.7603C2.26343 10.5014 2.05355 10.2916 1.79468 10.2916C1.5358 10.2916 1.32593 10.5014 1.32593 10.7603V30.8999C1.32593 31.5065 1.81943 32 2.42605 32H22.5031C24.1541 32 25.4972 30.6568 25.4972 29.0058V25.3039C25.4972 25.0451 25.2873 24.8352 25.0284 24.8352C24.7696 24.8352 24.5597 25.0451 24.5597 25.3039V29.0058C24.5597 30.1399 23.6371 31.0625 22.5031 31.0625H5.42024V0.9375H22.5031C23.6371 0.9375 24.5597 1.86013 24.5597 2.99419V23.1161C24.5597 23.3749 24.7696 23.5848 25.0284 23.5848C25.2873 23.5848 25.4972 23.3749 25.4972 23.1161V2.99419C25.4972 1.34319 24.154 0 22.5031 0V0Z" fill="black"/>
<path d="M21.3302 11.9594V4.38318C21.3302 4.1243 21.1203 3.91443 20.8614 3.91443H8.23438C7.9755 3.91443 7.76562 4.1243 7.76562 4.38318V11.9594C7.76562 12.2183 7.9755 12.4282 8.23438 12.4282H20.8614C21.1203 12.4282 21.3302 12.2183 21.3302 11.9594ZM20.3927 11.4907H8.70312V4.85193H20.3927V11.4907Z" fill="black"/>
<path d="M30.2056 0H27.6802C27.4213 0 27.2114 0.209875 27.2114 0.46875V4.38312V28.1116C27.2114 28.7691 27.3668 29.4273 27.6609 30.0153L28.5237 31.7409C28.6031 31.8997 28.7654 32 28.9429 32C29.1205 32 29.2828 31.8997 29.3622 31.7409L30.2249 30.0153C30.519 29.4273 30.6744 28.769 30.6744 28.1116V10.0982C30.6744 9.83931 30.4645 9.62944 30.2056 9.62944C29.9467 9.62944 29.7369 9.83931 29.7369 10.0982V28.1116C29.7369 28.6242 29.6157 29.1375 29.3864 29.596L28.9429 30.483L28.4994 29.596C28.2701 29.1375 28.1489 28.6241 28.1489 28.1116V4.85187H29.7369V7.909C29.7369 8.16787 29.9467 8.37775 30.2056 8.37775C30.4645 8.37775 30.6744 8.16787 30.6744 7.909V0.46875C30.6744 0.209875 30.4645 0 30.2056 0V0ZM28.1489 3.91438V0.9375H29.7369V3.91438H28.1489Z" fill="black"/>
</g>
<defs>
<clipPath id="clip0">
<rect width="32" height="32" fill="white"/>
</clipPath>
</defs>
</svg>
