<svg width="32" height="32" viewBox="0 0 32 32" fill="none" xmlns="http://www.w3.org/2000/svg">
<path d="M31.2381 28.8889C31.2381 30.6072 24.3589 32.0001 15.873 32.0001C7.38711 32.0001 0.507935 30.6072 0.507935 28.8889C0.507935 27.1707 7.38711 25.7778 15.873 25.7778C24.3589 25.7778 31.2381 27.1707 31.2381 28.8889Z" fill="black" fill-opacity="0.2"/>
<g clip-path="url(#clip0)">
<path d="M15.1746 9.04639C12.9755 9.04639 11.1864 7.25729 11.1864 5.0582C11.1864 2.85911 12.9755 1.07001 15.1746 1.07001C17.3737 1.07001 19.1628 2.85911 19.1628 5.0582C19.1628 7.25729 17.3737 9.04639 15.1746 9.04639Z" fill="#FFDCA0"/>
<path d="M15.1746 3.38312C14.9206 3.42923 14.2878 3.98773 14.2878 5.03845C14.2878 6.08917 14.9206 6.64767 15.1746 6.69379C15.4286 6.64767 16.0614 6.08917 16.0614 5.03845C16.0614 3.98773 15.4286 3.42929 15.1746 3.38312Z" fill="#FFCF5D"/>
<path d="M15.2294 8.32955C14.4619 8.29784 13.8409 8.90938 13.8409 9.6936V10.2146C13.8409 10.8165 13.8409 11.2913 13.8409 11.2913V12.8324H16.5084C16.5084 12.8324 16.5084 10.0526 16.5084 9.69366C16.5084 8.9373 15.9388 8.35853 15.2294 8.32955Z" fill="#FFF9EB"/>
<path d="M15.8674 8.52386C15.4546 8.75054 15.1747 9.18929 15.1747 9.69361V12.8324H16.5084C16.5084 12.8324 16.5084 10.0526 16.5084 9.69361C16.5084 9.22545 16.2802 8.77679 15.8674 8.52386Z" fill="#D3CDBF"/>
<path d="M6.87598 20.4205H20.5094L18.7311 13.9888H6.87598V20.4205Z" fill="#FFC98C"/>
<path d="M23.4731 13.9891H18.7311V20.4205H23.4731V13.9891Z" fill="#F7A16E"/>
<path d="M7.46872 11.6177C6.81396 11.6177 6.2832 12.1485 6.2832 12.8032V14.7202C6.2832 14.971 6.47277 15.1743 6.70661 15.1743C7.13956 15.1743 7.54655 14.9934 7.85283 14.6651C8.1546 14.3414 8.64576 14.3413 8.94765 14.6651C9.58131 15.3446 10.6064 15.3445 11.24 14.6651C11.5378 14.3457 12.0307 14.339 12.3348 14.6651C12.9685 15.3446 13.9936 15.3445 14.6272 14.6651C14.929 14.3414 15.4201 14.3413 15.722 14.6651C16.3558 15.3446 17.3808 15.3444 18.0144 14.6651C18.2086 14.4568 18.481 14.3833 18.7312 14.443L20.5094 11.6177C19.8514 11.6177 8.12383 11.6177 7.46872 11.6177Z" fill="#59B3F3"/>
<path d="M22.8804 11.6177H18.7311V13.5432C18.2271 13.4908 17.7181 13.6789 17.3641 14.0586C17.2276 14.205 17.0514 14.2856 16.868 14.2856C16.6847 14.2856 16.5086 14.205 16.3722 14.0588C16.0608 13.7247 15.6242 13.5332 15.1744 13.5332C14.7247 13.5332 14.2882 13.7248 13.9769 14.0586C13.8404 14.2049 13.6643 14.2856 13.4809 14.2856C13.2975 14.2856 13.1215 14.205 12.985 14.0587C12.582 13.6266 11.979 13.4426 11.4113 13.5783C11.0966 13.6536 10.8124 13.8198 10.5898 14.0587C10.4533 14.205 10.2772 14.2856 10.0938 14.2856C9.9104 14.2856 9.7343 14.2051 9.5979 14.0588C9.28647 13.7248 8.8499 13.5332 8.40012 13.5332C7.95033 13.5332 7.51383 13.7249 7.20257 14.0587C7.0644 14.2069 6.89285 14.2852 6.70661 14.2852C6.55332 14.2852 6.4091 14.324 6.2832 14.3923V14.7203C6.2832 14.9711 6.47277 15.1744 6.70661 15.1744C7.13956 15.1744 7.54655 14.9935 7.85283 14.6652C8.1546 14.3415 8.64576 14.3414 8.94765 14.6652C9.58131 15.3447 10.6064 15.3446 11.24 14.6652C11.3476 14.5498 11.4794 14.4763 11.618 14.4432C11.8681 14.3835 12.1406 14.457 12.3348 14.6653C12.9685 15.3447 13.9936 15.3446 14.6272 14.6653C14.929 14.3416 15.4201 14.3415 15.722 14.6653C16.3558 15.3448 17.3808 15.3446 18.0144 14.6653C18.2086 14.457 18.481 14.3835 18.7312 14.4433C18.8698 14.4764 19.0016 14.5499 19.1092 14.6653C19.7429 15.3449 20.768 15.3446 21.4016 14.6653C21.7034 14.3416 22.1945 14.3416 22.4964 14.6653C22.8026 14.9937 23.2096 15.1745 23.6426 15.1745C23.8764 15.1745 24.066 14.9712 24.066 14.7204V12.8035C24.0659 12.1485 23.5351 11.6177 22.8804 11.6177Z" fill="#1292EE"/>
<path d="M3.91211 26.9408H21.6951L19.9168 19.9163H3.91211V26.9408Z" fill="#FFC98C"/>
<path d="M26.4369 19.9163H18.7311V26.9408H26.4369" fill="#F7A16E"/>
<path d="M23.0583 19.3235C22.2435 19.3235 5.18355 19.3235 4.51848 19.3235C3.88903 19.3235 3.37878 19.8543 3.37878 20.509C3.37878 22.216 3.37878 21.6698 3.37878 22.426C3.37878 22.6767 3.561 22.88 3.78583 22.88C4.20201 22.88 4.59334 22.6992 4.88777 22.3709C5.17786 22.0471 5.65005 22.0471 5.94027 22.3709C6.54944 23.0503 7.5349 23.0502 8.14402 22.3709C8.43015 22.0516 8.90405 22.0445 9.19652 22.3709C9.49 22.6982 9.87078 22.8673 10.2548 22.8793C10.6679 22.8921 11.0846 22.7229 11.4003 22.3709C11.6904 22.0471 12.1626 22.0471 12.4528 22.3709C13.062 23.0504 14.0474 23.0502 14.6565 22.3709C14.9488 22.0447 15.4227 22.0515 15.7091 22.3709C16.3183 23.0504 17.3037 23.0502 17.9128 22.3709C18.1978 22.0529 18.658 22.048 18.9493 22.3547L18.949 22.3709C19.4764 22.959 20.1471 22.88 20.0672 22.88C20.0763 22.88 20.0854 22.8794 20.0945 22.8793L23.0583 19.3235Z" fill="#FFCE79"/>
<path d="M25.8308 19.3235H18.7312V21.2679C18.2111 21.1683 17.6502 21.3318 17.2508 21.7773C17.0031 22.0536 16.6351 22.0718 16.3711 21.7774C16.0647 21.4356 15.6313 21.2396 15.1818 21.2396C14.7335 21.2396 14.3006 21.4357 13.9945 21.7773C13.8708 21.9153 13.7145 21.9913 13.5545 21.9913C13.3923 21.9913 13.2402 21.9173 13.1148 21.7774C12.8081 21.4352 12.375 21.239 11.9265 21.239C11.4779 21.239 11.0449 21.4353 10.7382 21.7774C10.4899 22.0543 10.1204 22.0695 9.85845 21.7774C9.21548 21.0601 8.12262 21.0625 7.48191 21.7774C7.23413 22.0537 6.86633 22.0719 6.6022 21.7774C5.95953 21.0606 4.86838 21.0601 4.22559 21.7774C3.92471 22.1131 3.75992 21.8934 3.37866 22.0902C3.37866 22.167 3.37866 22.2678 3.37866 22.4261C3.37866 22.6768 3.56088 22.8802 3.78571 22.8802C4.20188 22.8802 4.59322 22.6993 4.88764 22.371C5.17774 22.0473 5.64993 22.0472 5.94014 22.371C6.54932 23.0505 7.53478 23.0503 8.1439 22.371C8.43002 22.0517 8.90393 22.0447 9.1964 22.371C9.8051 23.0499 10.7916 23.0497 11.4002 22.371C11.6902 22.0473 12.1624 22.0472 12.4527 22.371C13.0619 23.0505 14.0473 23.0503 14.6564 22.371C14.9487 22.0448 15.4226 22.0516 15.709 22.371C16.3181 23.0505 17.3036 23.0503 17.9127 22.371C18.2044 22.0455 18.6669 22.0576 18.9492 22.3548L18.9489 22.371C19.1499 22.5943 19.3973 22.7525 19.683 22.8323C19.9138 22.8968 20.079 22.8834 20.0729 22.8806C20.4647 22.8742 20.8543 22.7037 21.1527 22.371C21.445 22.0448 21.9189 22.0516 22.2052 22.371C22.8144 23.0505 23.7998 23.0503 24.4089 22.371C24.699 22.0473 25.1712 22.0472 25.4614 22.371C25.7558 22.6993 26.1471 22.8802 26.5633 22.8802C26.7881 22.8802 26.9703 22.6768 26.9703 22.4261V20.5091C26.9705 19.8542 26.4603 19.3235 25.8308 19.3235Z" fill="#FFB940"/>
<path d="M25.1076 29.9046H5.2415C4.7699 29.9046 4.31757 29.7172 3.98408 29.3837L2.13391 27.5336H28.2152L26.3651 29.3837C26.0316 29.7172 25.5792 29.9046 25.1076 29.9046Z" fill="#D3CDBF"/>
<path d="M29.0155 28.4227H1.33372C0.842676 28.4227 0.44458 28.0246 0.44458 27.5336C0.44458 27.0426 0.842676 26.6445 1.33372 26.6445H29.0155C29.5065 26.6445 29.9046 27.0426 29.9046 27.5336C29.9046 28.0246 29.5065 28.4227 29.0155 28.4227Z" fill="#FFF9EB"/>
<path d="M17.0417 24.6883C17.2873 24.6883 17.4863 24.4893 17.4863 24.2438C17.4863 23.9982 17.2873 23.7992 17.0417 23.7992C16.7962 23.7992 16.5972 23.9982 16.5972 24.2438C16.5972 24.4893 16.7962 24.6883 17.0417 24.6883Z" fill="black"/>
<path d="M13.2482 25.3996C13.4937 25.3996 13.6927 25.2006 13.6927 24.9551C13.6927 24.7095 13.4937 24.5105 13.2482 24.5105C13.0026 24.5105 12.8036 24.7095 12.8036 24.9551C12.8036 25.2006 13.0026 25.3996 13.2482 25.3996Z" fill="black"/>
<path d="M8.2097 25.3996C8.45523 25.3996 8.65427 25.2006 8.65427 24.9551C8.65427 24.7095 8.45523 24.5105 8.2097 24.5105C7.96418 24.5105 7.76514 24.7095 7.76514 24.9551C7.76514 25.2006 7.96418 25.3996 8.2097 25.3996Z" fill="black"/>
<path d="M10.8771 24.8069C11.1226 24.8069 11.3216 24.6079 11.3216 24.3624C11.3216 24.1168 11.1226 23.9178 10.8771 23.9178C10.6315 23.9178 10.4325 24.1168 10.4325 24.3624C10.4325 24.6079 10.6315 24.8069 10.8771 24.8069Z" fill="black"/>
<path d="M11.7662 17.0418C12.0118 17.0418 12.2108 16.8427 12.2108 16.5972C12.2108 16.3517 12.0118 16.1526 11.7662 16.1526C11.5207 16.1526 11.3217 16.3517 11.3217 16.5972C11.3217 16.8427 11.5207 17.0418 11.7662 17.0418Z" fill="black"/>
<path d="M6.13512 24.8069C6.38065 24.8069 6.57969 24.6079 6.57969 24.3624C6.57969 24.1168 6.38065 23.9178 6.13512 23.9178C5.88959 23.9178 5.69055 24.1168 5.69055 24.3624C5.69055 24.6079 5.88959 24.8069 6.13512 24.8069Z" fill="black"/>
<path d="M17.6938 17.9309C17.9394 17.9309 18.1384 17.7319 18.1384 17.4864C18.1384 17.2408 17.9394 17.0418 17.6938 17.0418C17.4483 17.0418 17.2493 17.2408 17.2493 17.4864C17.2493 17.7319 17.4483 17.9309 17.6938 17.9309Z" fill="black"/>
<path d="M13.5445 17.9309C13.7901 17.9309 13.9891 17.7319 13.9891 17.4864C13.9891 17.2408 13.7901 17.0418 13.5445 17.0418C13.299 17.0418 13.1 17.2408 13.1 17.4864C13.1 17.7319 13.299 17.9309 13.5445 17.9309Z" fill="black"/>
<path d="M9.9879 17.9309C10.2334 17.9309 10.4325 17.7319 10.4325 17.4864C10.4325 17.2408 10.2334 17.0418 9.9879 17.0418C9.74237 17.0418 9.54333 17.2408 9.54333 17.4864C9.54333 17.7319 9.74237 17.9309 9.9879 17.9309Z" fill="black"/>
<path d="M15.9155 17.0418C16.161 17.0418 16.3601 16.8427 16.3601 16.5972C16.3601 16.3517 16.161 16.1526 15.9155 16.1526C15.67 16.1526 15.4709 16.3517 15.4709 16.5972C15.4709 16.8427 15.67 17.0418 15.9155 17.0418Z" fill="black"/>
<path d="M21.8431 17.9309C22.0887 17.9309 22.2877 17.7319 22.2877 17.4864C22.2877 17.2408 22.0887 17.0418 21.8431 17.0418C21.5976 17.0418 21.3986 17.2408 21.3986 17.4864C21.3986 17.7319 21.5976 17.9309 21.8431 17.9309Z" fill="black"/>
<path d="M20.0648 17.0418C20.3103 17.0418 20.5094 16.8427 20.5094 16.5972C20.5094 16.3517 20.3103 16.1526 20.0648 16.1526C19.8193 16.1526 19.6202 16.3517 19.6202 16.5972C19.6202 16.8427 19.8193 17.0418 20.0648 17.0418Z" fill="black"/>
<path d="M19.5907 25.6374C19.8362 25.6374 20.0353 25.4383 20.0353 25.1928C20.0353 24.9473 19.8362 24.7482 19.5907 24.7482C19.3452 24.7482 19.1461 24.9473 19.1461 25.1928C19.1461 25.4383 19.3452 25.6374 19.5907 25.6374Z" fill="black"/>
<path d="M23.7405 25.6374C23.986 25.6374 24.185 25.4383 24.185 25.1928C24.185 24.9473 23.986 24.7482 23.7405 24.7482C23.4949 24.7482 23.2959 24.9473 23.2959 25.1928C23.2959 25.4383 23.4949 25.6374 23.7405 25.6374Z" fill="black"/>
<path d="M21.9623 24.7482C22.2078 24.7482 22.4068 24.5492 22.4068 24.3036C22.4068 24.0581 22.2078 23.8591 21.9623 23.8591C21.7167 23.8591 21.5177 24.0581 21.5177 24.3036C21.5177 24.5492 21.7167 24.7482 21.9623 24.7482Z" fill="black"/>
<path d="M8.50609 17.1011C8.75162 17.1011 8.95066 16.902 8.95066 16.6565C8.95066 16.411 8.75162 16.2119 8.50609 16.2119C8.26056 16.2119 8.06152 16.411 8.06152 16.6565C8.06152 16.902 8.26056 17.1011 8.50609 17.1011Z" fill="black"/>
<path d="M29.0155 26.1999H26.8816V23.259C26.9946 23.2113 27.0979 23.1388 27.182 23.044C27.332 22.8762 27.415 22.6569 27.415 22.4263V20.5094C27.415 20.0766 27.2526 19.6694 26.9574 19.3623C26.6628 19.0553 26.2526 18.8793 25.8324 18.8793H23.9178V15.5718C24.0495 15.5264 24.1703 15.4492 24.2669 15.344C24.424 15.1757 24.5105 14.954 24.5105 14.7199V12.8029C24.5105 12.3678 24.341 11.9582 24.0327 11.6506C23.7251 11.343 23.3161 11.1734 22.8804 11.1734H16.9529V9.69354C16.9529 8.84922 16.3908 8.14076 15.6192 7.9407V7.1764C16.1976 6.87557 16.5972 6.02787 16.5972 5.03838C16.5972 3.9224 16.0892 2.9862 15.3892 2.81216C15.2483 2.77713 15.1009 2.77713 14.96 2.81216C14.26 2.9862 13.752 3.9224 13.752 5.03838C13.752 6.08744 14.1834 6.8895 14.73 7.17628V7.93892C14.4399 8.01308 14.173 8.16061 13.9511 8.37353C13.5934 8.71686 13.3963 9.18561 13.3963 9.6936V11.1734H7.46874C7.03301 11.1734 6.62406 11.3429 6.31642 11.6506C6.00819 11.9582 5.83866 12.3678 5.83866 12.8029C5.83866 13.1846 5.83742 13.4988 5.83629 13.7507C5.8357 13.9268 5.83505 14.0791 5.83505 14.2077V14.2213C5.83629 14.555 5.83682 14.7387 5.8635 14.9095C5.8747 14.9789 5.89906 15.0808 5.9536 15.1756C5.99746 15.2527 6.04376 15.3025 6.07393 15.3356L6.08163 15.3439C6.24286 15.5188 6.46989 15.6184 6.70462 15.6184H6.70877C6.74534 15.6184 6.78162 15.6161 6.8179 15.6141C6.83698 15.6166 6.85625 15.6184 6.87599 15.6184C6.92714 15.6184 6.9761 15.6093 7.02186 15.5934C7.32364 15.545 7.61047 15.4269 7.86471 15.2444C7.97614 15.1643 8.08166 15.0713 8.17768 14.9681C8.2417 14.9012 8.31461 14.868 8.39997 14.8668C8.48592 14.868 8.55883 14.9012 8.62225 14.9681C8.81786 15.178 9.04726 15.3416 9.30511 15.4542C9.55584 15.5633 9.82021 15.619 10.0905 15.619H10.0965C10.3668 15.619 10.6312 15.5633 10.8825 15.4536C11.1398 15.3415 11.3697 15.178 11.5648 14.9681C11.5701 14.9628 11.5819 14.9515 11.5944 14.9409C11.6531 14.8917 11.7142 14.8686 11.7859 14.868C11.8694 14.868 11.9495 14.9036 12.0099 14.9681C12.2049 15.178 12.4343 15.3416 12.6922 15.4536C12.9429 15.5633 13.2072 15.619 13.4769 15.619H13.4811C13.5795 15.619 13.6808 15.6113 13.7811 15.5965C14.0252 15.5585 14.2469 15.4832 14.4408 15.3724C14.6388 15.258 14.778 15.1306 14.88 15.0369C14.9138 15.0061 14.9429 14.9789 14.9689 14.9575C15.014 14.9195 15.0501 14.894 15.0768 14.8816C15.1011 14.8715 15.1153 14.8668 15.1604 14.8656C15.1734 14.8656 15.187 14.8662 15.2019 14.868H15.2036C15.2777 14.8763 15.3411 14.9088 15.3969 14.9681C15.5895 15.1755 15.8159 15.3374 16.0708 15.45C16.3245 15.5621 16.5919 15.619 16.8657 15.619H16.8711C17.1414 15.619 17.4057 15.5638 17.6571 15.4542C17.9149 15.3416 18.1443 15.178 18.3393 14.9681C18.4027 14.9012 18.4751 14.8686 18.561 14.8674C18.6463 14.868 18.7217 14.9017 18.7839 14.9681C18.8681 15.0583 18.9866 15.1099 19.1093 15.1099C19.2225 15.1099 19.3298 15.0671 19.4122 14.9901C19.5894 14.8253 19.6007 14.5449 19.4382 14.3659L19.4341 14.3618C19.2077 14.1182 18.8905 13.9782 18.5634 13.9782H18.5569C18.2314 13.9782 17.9149 14.1181 17.6891 14.3618C17.4644 14.6019 17.1805 14.7293 16.868 14.7299C16.5562 14.7293 16.2723 14.6019 16.0471 14.3618C15.8473 14.1466 15.58 14.0126 15.2937 13.9836C15.2445 13.9782 15.1953 13.9765 15.149 13.9765C14.9528 13.9765 14.7472 14.0358 14.5847 14.1389C14.4443 14.229 14.3482 14.3173 14.2635 14.3955C14.213 14.4418 14.1698 14.4821 14.1241 14.5159C14.0115 14.6012 13.8971 14.6753 13.6452 14.7174C13.5906 14.7257 13.535 14.7298 13.481 14.7298C13.1686 14.7286 12.8847 14.6012 12.66 14.3617C12.433 14.1181 12.1147 13.9788 11.7869 13.9788H11.7827C11.5053 13.9788 11.2338 14.0795 11.0192 14.2628C10.9813 14.2948 10.9469 14.3274 10.9149 14.3617C10.6897 14.6018 10.4057 14.7286 10.0934 14.7298C9.78097 14.7286 9.49704 14.6012 9.27298 14.3617C9.04595 14.1175 8.72942 13.9776 8.4034 13.9776H8.39694C8.07093 13.9776 7.75374 14.1175 7.52737 14.3617C7.47165 14.4216 7.41113 14.475 7.34652 14.5217C7.16223 14.6528 6.95714 14.7227 6.73598 14.7292C6.73242 14.6854 6.72175 14.5312 6.72412 14.2076C6.72412 14.0826 6.72477 13.932 6.72537 13.7583C6.72655 13.5046 6.72774 13.1887 6.72774 12.8027C6.72833 12.3949 7.06087 12.063 7.46868 12.0624H22.8804C23.2882 12.063 23.6207 12.3949 23.6213 12.8027V14.7198C23.6213 14.7233 23.6207 14.7262 23.6201 14.7292C23.3172 14.7221 23.041 14.5952 22.8216 14.3617C22.5946 14.1175 22.2775 13.9776 21.9515 13.9776H21.9444C21.6189 13.9776 21.3024 14.1175 21.076 14.3617C20.9385 14.5093 20.7766 14.6143 20.5946 14.6747C20.4821 14.7121 20.3902 14.7915 20.3374 14.8976C20.2841 15.0037 20.2752 15.124 20.3125 15.2367C20.373 15.4192 20.5425 15.5419 20.7345 15.5419C20.782 15.5419 20.8288 15.5342 20.8744 15.5188C21.1945 15.4126 21.4891 15.2224 21.7262 14.9681C21.7902 14.9011 21.8626 14.868 21.9479 14.8667C22.0344 14.868 22.1073 14.9011 22.1707 14.9681C22.3622 15.1744 22.5869 15.3356 22.8394 15.4483C22.9015 15.476 22.9647 15.5001 23.0285 15.5211V18.8793H7.32038V16.9528C7.32038 16.7073 7.12121 16.5082 6.87581 16.5082C6.631 16.5082 6.43124 16.7073 6.43124 16.9528V18.8793H4.51681C4.09649 18.8793 3.6863 19.0553 3.39229 19.3623C3.09657 19.6694 2.93415 20.0766 2.93415 20.5094V22.4263C2.93415 22.6569 3.01708 22.8762 3.1671 23.044C3.32537 23.2224 3.55002 23.3243 3.78416 23.3243H3.78594C3.8381 23.3243 3.89027 23.322 3.95132 23.3166C3.95233 23.3165 3.95328 23.3164 3.95428 23.3162C3.95707 23.316 3.95986 23.3156 3.96264 23.3153C4.43963 23.2706 4.88515 23.041 5.21858 22.6675C5.27661 22.6041 5.33885 22.5739 5.41359 22.5726C5.48887 22.5739 5.55052 22.604 5.6092 22.6675C5.98205 23.0854 6.50249 23.3249 7.03775 23.3249H7.04546C7.58072 23.3249 8.10175 23.0854 8.47459 22.6675C8.53209 22.6052 8.59611 22.5739 8.6708 22.5732C8.74667 22.575 8.80654 22.6041 8.86522 22.6675C9.23807 23.0848 9.7591 23.3242 10.295 23.3242H10.3021C10.8373 23.3242 11.3584 23.0848 11.7312 22.6675C11.7892 22.6041 11.8515 22.5739 11.9262 22.5726C12.0015 22.5739 12.0631 22.604 12.1218 22.6675C12.4947 23.0854 13.0157 23.3249 13.5509 23.3249H13.558C14.0933 23.3249 14.6143 23.0854 14.9872 22.6675C15.0452 22.6046 15.1069 22.5745 15.1816 22.5732C15.2563 22.5739 15.3209 22.6052 15.3778 22.6675C15.7512 23.0854 16.2717 23.3249 16.8069 23.3249H16.8146C17.3493 23.3249 17.8703 23.0854 18.2437 22.6675C18.2497 22.661 18.2556 22.6544 18.2621 22.648C18.2681 22.6432 18.2782 22.6349 18.287 22.6278L18.3333 22.5988C18.335 22.5975 18.3368 22.5964 18.3392 22.5958L18.3404 22.5951C18.3452 22.5934 18.3499 22.5911 18.3553 22.5892C18.3582 22.588 18.3612 22.5869 18.3641 22.5856C18.3659 22.585 18.3671 22.5844 18.3682 22.5839C18.3884 22.5768 18.4115 22.5732 18.434 22.5732C18.4956 22.5738 18.5543 22.5963 18.6035 22.639C18.6841 22.7083 18.7873 22.7468 18.894 22.7468C19.0161 22.7468 19.1346 22.6953 19.2182 22.6064L19.2194 22.6051C19.2206 22.6039 19.2218 22.6027 19.2224 22.6015C19.2241 22.6003 19.2254 22.5986 19.2265 22.5974C19.2265 22.5968 19.2272 22.5968 19.2272 22.5968L19.2277 22.5956C19.2283 22.595 19.2289 22.5944 19.2301 22.5933L19.2307 22.5926C19.2307 22.592 19.2313 22.592 19.2313 22.592C19.3072 22.5037 19.3451 22.3911 19.3381 22.2743C19.3309 22.1581 19.2794 22.0508 19.1928 21.9732L19.1887 21.9691L19.1875 21.9685C19.1875 21.9678 19.1868 21.9672 19.1863 21.9667C19.1863 21.9667 19.1857 21.9667 19.1857 21.9661C19.1815 21.9625 19.178 21.9596 19.1738 21.956C18.9652 21.7806 18.7032 21.6846 18.4358 21.6846H18.4341C18.3149 21.6846 18.1976 21.7029 18.0862 21.7408H18.0855C18.0606 21.7492 18.0482 21.7544 18.0346 21.7598L18.0233 21.7639C18.018 21.7663 18.0132 21.768 18.0091 21.7699L17.9997 21.7735C17.9973 21.7747 17.9955 21.7752 17.9937 21.7758C17.9901 21.7776 17.9872 21.7788 17.9741 21.7841L17.9724 21.7853C17.9588 21.7918 17.9534 21.7942 17.9492 21.7966C17.9469 21.7978 17.9445 21.7984 17.9415 21.8001C17.9297 21.8061 17.916 21.8132 17.9048 21.8191C17.9007 21.8215 17.8965 21.8239 17.8923 21.8256L17.8882 21.828C17.8859 21.8292 17.8846 21.8297 17.8835 21.831C17.8805 21.8322 17.8775 21.8339 17.8656 21.8404C17.8656 21.8404 17.8657 21.8405 17.8651 21.841C17.8556 21.8464 17.8526 21.8487 17.8508 21.8499C17.8496 21.8505 17.8491 21.8511 17.8467 21.8523C17.8373 21.8582 17.8242 21.8671 17.81 21.876C17.8076 21.8777 17.8047 21.8796 17.8023 21.8813C17.7981 21.8843 17.7939 21.8873 17.7898 21.8896L17.7857 21.8926C17.7809 21.8956 17.7774 21.8979 17.762 21.9092C17.7549 21.9145 17.7526 21.9163 17.7508 21.918C17.7495 21.9186 17.7484 21.9198 17.7472 21.921L17.7377 21.9288C17.7294 21.9352 17.7199 21.9429 17.7104 21.9506L17.6926 21.9655C17.6903 21.9672 17.6891 21.9685 17.6879 21.9696C17.6849 21.972 17.6825 21.9738 17.6695 21.9857C17.6381 22.0141 17.609 22.0432 17.5812 22.0746C17.369 22.3093 17.1022 22.4343 16.8106 22.4356C16.519 22.4343 16.2528 22.3093 16.04 22.0739C15.819 21.8262 15.5071 21.6839 15.1847 21.6839H15.1776C14.8563 21.6839 14.5457 21.8262 14.3252 22.0739C14.1124 22.3093 13.8462 22.4343 13.5546 22.4356C13.2629 22.4343 12.9962 22.3093 12.784 22.0739C12.5629 21.8256 12.2517 21.6833 11.9298 21.6833H11.9227C11.6014 21.6833 11.2903 21.8256 11.0692 22.0739C10.857 22.3087 10.5909 22.4332 10.2986 22.4349C10.0063 22.4332 9.7396 22.3087 9.52739 22.0739C9.30688 21.8262 8.99628 21.6839 8.6756 21.6839H8.66789C8.34549 21.6839 8.03364 21.8262 7.81314 22.0739C7.60034 22.3093 7.3336 22.4343 7.04196 22.4356C6.75032 22.4343 6.48358 22.3093 6.27137 22.0739C6.05028 21.8256 5.73908 21.6833 5.41721 21.6833H5.4101C5.08882 21.6833 4.77763 21.8256 4.55659 22.0739C4.36453 22.2867 4.13454 22.4065 3.87254 22.4308C3.8547 22.4326 3.83876 22.4338 3.82394 22.4344C3.82335 22.4314 3.82334 22.4291 3.82334 22.4261V20.5094C3.82334 20.3078 3.89803 20.1199 4.03318 19.9788C4.16655 19.8413 4.3343 19.7684 4.51859 19.7678H25.8306C26.0149 19.7684 26.1827 19.8413 26.3161 19.9788C26.4512 20.1199 26.5259 20.3084 26.5259 20.5094V22.4263C26.5259 22.4287 26.5259 22.4317 26.5253 22.4346C26.5105 22.434 26.4939 22.4329 26.4761 22.4311C26.2147 22.4068 25.9847 22.2864 25.7927 22.0742C25.5716 21.8259 25.2604 21.6835 24.9391 21.6835H24.9314C24.6101 21.6835 24.2989 21.8258 24.0779 22.0742C23.865 22.3096 23.5989 22.4346 23.3073 22.4358C23.0156 22.4346 22.7488 22.3096 22.5367 22.0742C22.3156 21.8264 22.0038 21.6841 21.6813 21.6841H21.6736C21.3523 21.6841 21.0417 21.8264 20.8218 22.0742C20.6872 22.2241 20.5213 22.3338 20.3417 22.3919C20.229 22.4281 20.1366 22.5063 20.0826 22.6124C20.0287 22.7179 20.0192 22.8383 20.0554 22.9515C20.1152 23.1358 20.2848 23.2591 20.4786 23.2591C20.5248 23.2591 20.5705 23.252 20.6156 23.2378C20.9446 23.1311 21.2451 22.9343 21.4839 22.6676C21.5415 22.6047 21.6037 22.5745 21.6783 22.5733C21.753 22.5739 21.817 22.6053 21.8739 22.6676C22.2474 23.0855 22.7678 23.325 23.3031 23.325H23.3108C23.846 23.325 24.3665 23.0855 24.7399 22.6676C24.7979 22.6042 24.8602 22.5739 24.9349 22.5727C25.0102 22.5739 25.0724 22.6041 25.1305 22.6676C25.37 22.9357 25.6674 23.1294 25.9924 23.2341V26.1999H4.35677V24.6521C4.35677 24.4067 4.1576 24.2076 3.9122 24.2076C3.66674 24.2076 3.46763 24.4067 3.46763 24.6521V26.1999H1.3337C0.598329 26.1999 0 26.7982 0 27.5336C0 28.269 0.598329 28.8673 1.3337 28.8673H2.83895L3.66976 29.6981C4.08955 30.118 4.64781 30.3491 5.24158 30.3491H25.1076C25.7014 30.3491 26.2596 30.118 26.6795 29.6981L27.5103 28.8673H29.0155C29.7509 28.8673 30.3492 28.269 30.3492 27.5336C30.3492 26.7982 29.7509 26.1999 29.0155 26.1999ZM15.1746 3.65619C15.3289 3.69472 15.7135 4.16104 15.7135 5.03838C15.7135 5.91572 15.3289 6.38204 15.1746 6.42057C15.0202 6.38204 14.6357 5.91572 14.6357 5.03838C14.6357 4.16104 15.0202 3.69472 15.1746 3.65619ZM14.2855 9.69354C14.2855 9.43006 14.3854 9.18911 14.5667 9.01507C14.7394 8.8494 14.9687 8.76256 15.2112 8.77376C15.6972 8.79362 16.0637 9.18905 16.0637 9.6936V11.1734H14.2855V9.69354ZM29.0155 27.9782C29.0155 27.9782 29.0157 27.9782 29.0155 27.9782H22.3C22.0544 27.9782 21.8554 28.1771 21.8554 28.4227C21.8554 28.6683 22.0544 28.8673 22.3 28.8673H26.2528L26.0507 29.0693C25.7989 29.3212 25.4639 29.46 25.1077 29.46H5.24158C4.88533 29.46 4.55036 29.3212 4.2985 29.0693L4.09649 28.8673H7.85404C8.09962 28.8673 8.2986 28.6683 8.2986 28.4227C8.2986 28.1771 8.09962 27.9782 7.85404 27.9782H1.3337C1.08854 27.9782 0.889136 27.7788 0.889136 27.5336C0.889136 27.2884 1.08854 27.089 1.3337 27.089H29.0155C29.2606 27.089 29.46 27.2884 29.46 27.5336C29.46 27.7788 29.2606 27.9782 29.0155 27.9782Z" fill="black"/>
<path d="M10.1362 5.48301H12.4183C12.6639 5.48301 12.8629 5.28402 12.8629 5.03844C12.8629 4.79286 12.6639 4.59387 12.4183 4.59387H10.1362C9.89064 4.59387 9.69165 4.79286 9.69165 5.03844C9.69165 5.28402 9.89064 5.48301 10.1362 5.48301Z" fill="black"/>
<path d="M17.4863 5.03844C17.4863 5.28402 17.6853 5.48301 17.9309 5.48301H20.213C20.4586 5.48301 20.6576 5.28402 20.6576 5.03844C20.6576 4.79286 20.4586 4.59387 20.213 4.59387H17.9309C17.6853 4.59387 17.4863 4.79286 17.4863 5.03844Z" fill="black"/>
<path d="M15.1745 1.95604C15.4201 1.95604 15.6191 1.75705 15.6191 1.51147V0.444568C15.6191 0.198989 15.4201 0 15.1745 0C14.929 0 14.73 0.198989 14.73 0.444568V1.51147C14.73 1.75705 14.929 1.95604 15.1745 1.95604Z" fill="black"/>
<path d="M12.7333 3.22599C12.8201 3.31277 12.9339 3.35616 13.0477 3.35616C13.1614 3.35616 13.2752 3.31277 13.3621 3.22599C13.5357 3.05231 13.5357 2.77087 13.3621 2.59725L11.9262 1.16136C11.7525 0.987799 11.4711 0.987799 11.2975 1.16136C11.1238 1.33504 11.1238 1.61648 11.2975 1.7901L12.7333 3.22599Z" fill="black"/>
<path d="M18.423 8.91557C18.5098 9.00235 18.6236 9.04574 18.7374 9.04574C18.8511 9.04574 18.9649 9.00235 19.0518 8.91557C19.2254 8.74189 19.2254 8.46045 19.0518 8.28683L17.6159 6.85093C17.4422 6.67737 17.1608 6.67737 16.9871 6.85093C16.8135 7.02461 16.8135 7.30605 16.9871 7.47967L18.423 8.91557Z" fill="black"/>
<path d="M17.3015 3.35616C17.4152 3.35616 17.529 3.31277 17.6159 3.22599L19.0518 1.7901C19.2254 1.61642 19.2254 1.33498 19.0518 1.16136C18.8781 0.987799 18.5967 0.987799 18.423 1.16136L16.9871 2.59725C16.8135 2.77093 16.8135 3.05237 16.9871 3.22599C17.0739 3.31277 17.1877 3.35616 17.3015 3.35616Z" fill="black"/>
<path d="M12.7332 6.85093L11.2973 8.28683C11.1237 8.46051 11.1237 8.74195 11.2973 8.91557C11.3842 9.00235 11.498 9.04574 11.6117 9.04574C11.7255 9.04574 11.8393 9.00235 11.9261 8.91557L13.362 7.47967C13.5356 7.30599 13.5356 7.02455 13.362 6.85093C13.1883 6.67737 12.9069 6.67737 12.7332 6.85093Z" fill="black"/>
</g>
<defs>
<clipPath id="clip0">
<rect width="30.3492" height="30.3492" fill="white"/>
</clipPath>
</defs>
</svg>
