<svg width="32" height="32" viewBox="0 0 32 32" fill="none" xmlns="http://www.w3.org/2000/svg">
<path d="M13.8836 7.07823C11.364 4.28748 7.48533 0.494537 6.11158 1.8806C4.01096 4.00004 1.79852 9.75079 6.11158 9.75079C8.70477 9.75079 11.8151 9.75079 13.8836 9.75079V7.07823Z" fill="#FFDB57"/>
<path d="M18.1162 7.07823C20.6358 4.28748 24.5145 0.494537 25.8883 1.8806C27.9889 4.00004 30.2014 9.75079 25.8883 9.75079C23.2951 9.75079 20.1847 9.75079 18.1162 9.75079V7.07823Z" fill="#FFDB57"/>
<path d="M29.3224 14.7373H2.67749V30.4146H29.3224V14.7373Z" fill="#F7434C"/>
<path d="M29.3224 14.7373H2.67749V16.7584H29.3224V14.7373Z" fill="#DB2E37"/>
<path d="M31.4947 9.75146H0.505249V14.7374H31.4947V9.75146Z" fill="#F7434C"/>
<path d="M19.3758 9.75146H12.6241V14.7374H19.3758V9.75146Z" fill="#FFDB57"/>
<path d="M18.5815 14.7373H13.4191V30.4146H18.5815V14.7373Z" fill="#FFDB57"/>
<path d="M18.5815 14.7373H13.4191V16.7475H18.5815V14.7373Z" fill="#F5BA3D"/>
<path d="M6.89027 5.93675C4.9844 5.074 4.18871 5.41488 3.85984 5.91188C3.31846 7.90032 3.6649 9.75082 6.11146 9.75082C7.95365 9.75082 10.0568 9.75082 11.8622 9.75082C11.8623 9.75088 10.4245 7.53657 6.89027 5.93675Z" fill="#EF9325"/>
<path d="M25.1095 5.93675C27.0153 5.074 27.811 5.41488 28.1398 5.91188C28.6812 7.90032 28.3348 9.75082 25.8882 9.75082C24.046 9.75082 21.9428 9.75082 20.1375 9.75082C20.1375 9.75088 21.5751 7.53657 25.1095 5.93675Z" fill="#EF9325"/>
<path d="M18.1165 6.57861H13.8839V9.75099H18.1165V6.57861Z" fill="#F5BA3D"/>
<path d="M31.4947 9.2464H28.3208C28.3579 9.19765 28.392 9.14834 28.4239 9.09878C28.4248 9.09734 28.4256 9.09597 28.4266 9.09453C28.4597 9.0429 28.49 8.99121 28.518 8.93959C28.5197 8.9364 28.5214 8.93328 28.5231 8.93009C28.5531 8.87422 28.5803 8.81859 28.6047 8.76365C28.6051 8.76278 28.6056 8.76184 28.6059 8.76096C28.6139 8.74278 28.6219 8.72465 28.6294 8.70659C28.6381 8.68578 28.6451 8.66372 28.6534 8.64253C28.6652 8.61215 28.6769 8.58184 28.6877 8.55072C28.6966 8.52497 28.7048 8.49859 28.7129 8.47228C28.7257 8.43159 28.7381 8.39065 28.7493 8.34878C28.753 8.33459 28.7564 8.32015 28.7599 8.30578C28.9056 7.72728 28.9007 7.03978 28.7424 6.26378C28.7418 6.26122 28.7413 6.25859 28.7407 6.25603C28.7244 6.17678 28.7069 6.0969 28.6874 6.01584C28.6785 5.97815 28.6682 5.93997 28.6586 5.90197C28.6481 5.86097 28.6386 5.82047 28.6274 5.77897C28.6267 5.77665 28.6256 5.77465 28.625 5.77234C28.5478 5.48853 28.4526 5.19684 28.3382 4.89859C27.8428 3.60728 27.0611 2.34609 26.2471 1.52478C25.9484 1.22347 25.5463 1.07072 25.0884 1.08053C23.6591 1.11378 21.3816 2.80672 18.314 6.11365C18.2532 6.08778 18.1863 6.07334 18.1161 6.07334H13.8835C13.8133 6.07334 13.7464 6.08778 13.6856 6.11365C10.6181 2.80672 8.34056 1.1139 6.91119 1.08053C6.45219 1.07065 6.05113 1.22347 5.7525 1.52478C4.93863 2.34603 4.15687 3.60728 3.6615 4.89859C3.54719 5.19665 3.45206 5.48815 3.37488 5.77184C3.37413 5.77428 3.373 5.77653 3.37231 5.77903C3.36006 5.82415 3.34969 5.86815 3.33838 5.91278C3.32981 5.94653 3.32069 5.98053 3.31262 6.01409C3.10144 6.89328 3.0785 7.66665 3.24 8.30672C3.24344 8.32059 3.24669 8.33465 3.25031 8.3484C3.26156 8.39065 3.27419 8.43203 3.28713 8.47303C3.29519 8.49897 3.30319 8.52497 3.31194 8.55034C3.32288 8.58172 3.33469 8.61246 3.34663 8.64309C3.35469 8.66409 3.36181 8.68596 3.37031 8.70653C3.37781 8.72446 3.38569 8.74247 3.39369 8.76053C3.39419 8.76159 3.39462 8.76265 3.39512 8.76378C3.4195 8.81859 3.44675 8.87415 3.47656 8.92984C3.47831 8.93315 3.48012 8.93646 3.48194 8.93971C3.50987 8.99128 3.54013 9.04284 3.57325 9.0944C3.57419 9.09584 3.57506 9.09728 3.576 9.09878C3.60794 9.14821 3.642 9.19753 3.67906 9.2464H0.50525C0.226125 9.2464 0 9.47265 0 9.75165V14.7375C0 15.0165 0.226125 15.2427 0.50525 15.2427H2.17206V17.4935C2.17206 17.7725 2.39819 17.9987 2.67731 17.9987C2.95644 17.9987 3.18256 17.7725 3.18256 17.4935V15.2427H12.6241H12.9136V21.1988C12.9136 21.4778 13.1397 21.704 13.4188 21.704C13.6979 21.704 13.9241 21.4778 13.9241 21.1988V15.2427H18.0759V29.9092H13.9241V23.2198C13.9241 22.9408 13.6979 22.7146 13.4188 22.7146C13.1397 22.7146 12.9136 22.9408 12.9136 23.2198V29.9092H3.18263V19.5147C3.18263 19.2356 2.9565 19.0094 2.67738 19.0094C2.39825 19.0094 2.17213 19.2357 2.17213 19.5147V30.4145C2.17213 30.6936 2.39825 30.9198 2.67738 30.9198H13.4187H18.5811H29.3226C29.6017 30.9198 29.8278 30.6935 29.8278 30.4145V27.66C29.8278 27.381 29.6017 27.1548 29.3226 27.1548C29.0434 27.1548 28.8173 27.381 28.8173 27.66V29.9093H19.0865V15.2428H19.3759H28.8174V25.639C28.8174 25.9181 29.0436 26.1443 29.3227 26.1443C29.6018 26.1443 29.8279 25.918 29.8279 25.639V15.2428H31.4947C31.7739 15.2428 32 15.0165 32 14.7375V9.75172C32 9.47265 31.7739 9.2464 31.4947 9.2464ZM27.8424 7.68028C27.8416 7.68972 27.8408 7.69922 27.8398 7.70859C27.8361 7.74809 27.831 7.78659 27.8256 7.82497C27.8227 7.84565 27.8198 7.86653 27.8164 7.88672C27.8122 7.91197 27.8071 7.93653 27.8021 7.96115C27.7963 7.98959 27.7908 8.01821 27.784 8.04571C27.7809 8.05846 27.7771 8.07065 27.7738 8.08322C27.7283 8.25522 27.6641 8.40903 27.5804 8.54153C27.539 8.60646 27.4929 8.6669 27.4418 8.72265C27.4379 8.7269 27.4338 8.7309 27.4299 8.73503C27.4098 8.7564 27.3889 8.7769 27.3674 8.79697C27.3572 8.80634 27.3468 8.81559 27.3364 8.82465C27.3217 8.8374 27.3067 8.84959 27.2914 8.86171C27.2753 8.8744 27.2594 8.88709 27.2427 8.89909C27.2369 8.90334 27.2307 8.90715 27.2248 8.91128C26.9906 9.07384 26.6874 9.17746 26.3176 9.22109C26.3052 9.22253 26.2929 9.22396 26.2804 9.22528C26.2505 9.22846 26.2201 9.23115 26.1894 9.23359C26.1647 9.23547 26.1396 9.23703 26.1143 9.23846C26.0914 9.23971 26.0687 9.24115 26.0454 9.24209C25.9941 9.24396 25.942 9.24528 25.8885 9.24528H21.2127C21.9261 8.49203 23.2515 7.33222 25.3182 6.39672C26.4977 5.86284 27.3461 5.76884 27.6717 6.13059C27.8158 6.68953 27.8814 7.22247 27.8424 7.68028ZM14.3889 7.08397H17.6111V9.24546H14.3889V7.08397V7.08397ZM4.32837 6.13065C4.65412 5.76903 5.50269 5.86303 6.68194 6.39684C8.74881 7.3324 10.0742 8.4924 10.7874 9.2454H6.11163C6.058 9.2454 6.006 9.24415 5.95475 9.24222C5.93144 9.24134 5.90869 9.23984 5.88581 9.23859C5.86056 9.23715 5.83544 9.23565 5.81069 9.23372C5.77994 9.23128 5.74956 9.22859 5.71969 9.2254C5.70719 9.22415 5.69487 9.22265 5.68256 9.22121C5.31269 9.17759 5.0095 9.07396 4.77531 8.9114C4.76937 8.90728 4.76325 8.9034 4.75744 8.89922C4.74069 8.88715 4.72475 8.8744 4.70875 8.86184C4.6935 8.84971 4.67838 8.83747 4.66381 8.82478C4.65331 8.81565 4.64294 8.80647 4.63275 8.79709C4.61125 8.77709 4.59031 8.75653 4.57031 8.73515C4.56637 8.73097 4.56225 8.72703 4.55837 8.72278C4.50731 8.6669 4.46119 8.60659 4.41981 8.54165C4.33619 8.4094 4.27212 8.2559 4.22662 8.08428C4.22319 8.07134 4.21931 8.05871 4.21613 8.04559C4.20944 8.01846 4.204 7.99015 4.19825 7.96209C4.19319 7.93697 4.188 7.91197 4.18369 7.88622C4.18031 7.86647 4.17762 7.84615 4.17469 7.8259C4.16925 7.78697 4.16413 7.74778 4.16025 7.70753C4.15938 7.69884 4.15863 7.69009 4.15781 7.68134C4.11844 7.22322 4.18406 6.68984 4.32837 6.13065ZM12.1189 14.2323H2.67738H1.0105V10.257H12.1189V14.2323V14.2323ZM12.1209 9.24546C11.6423 8.61621 10.0998 6.83478 7.09869 5.47634C6.36613 5.14478 5.49613 4.85972 4.74794 4.91322C5.18219 3.89372 5.8065 2.90622 6.47044 2.23628C6.53806 2.16803 6.64375 2.09072 6.86494 2.09072C6.87244 2.09072 6.88013 2.09084 6.88781 2.09097C8.04738 2.11797 10.4083 4.00409 13.3784 7.27303V9.24559H12.1208V9.24546H12.1209ZM18.8706 14.2323H18.5811H13.4187H13.1293V10.257H18.8705V14.2323H18.8706ZM18.6216 9.24546V7.2729C21.5916 4.00397 23.9526 2.1179 25.1121 2.09084C25.3483 2.08553 25.4597 2.16559 25.5296 2.23615C26.1936 2.90615 26.8179 3.89353 27.2521 4.91303C26.5039 4.85953 25.6339 5.14465 24.9014 5.47622C21.9002 6.83472 20.3579 8.61621 19.8792 9.24534H18.6216V9.24546H18.6216ZM30.9895 14.2323H29.3227H19.8811V10.257H30.9894V14.2323H30.9895Z" fill="black"/>
</svg>
