<svg width="32" height="32" viewBox="0 0 32 32" fill="none" xmlns="http://www.w3.org/2000/svg">
<ellipse cx="16" cy="16.0001" rx="12.4236" ry="12.4236" fill="#B8DEFA"/>
<path d="M12.9424 26.9229C12.9959 26.9352 13.1372 26.8864 13.1772 26.8739C13.082 26.7973 12.8703 26.7869 12.7486 26.7114C12.7575 26.7173 12.3551 26.4722 12.4399 26.6752C12.4617 26.7235 12.5391 26.6792 12.5727 26.7043C12.5239 26.7772 12.5031 26.7539 12.5561 26.7848C12.5561 26.7843 12.1083 26.5433 12.5577 26.5264C12.2485 26.2488 12.5777 26.335 12.4792 26.1584C12.4131 26.0384 12.7437 25.9216 12.5657 25.8175C12.4797 25.7695 12.3866 25.7786 12.3 25.7194C12.1763 25.6292 12.2929 25.4706 12.4107 25.4877C12.4199 25.4877 12.4792 25.2052 12.5022 25.1615C12.4683 25.1472 12.2368 24.8608 12.293 24.8013C12.3618 24.7288 12.6605 24.9862 12.7347 24.7963C12.7637 24.7274 12.6307 24.5421 12.6413 24.4655C12.7786 24.454 13.6706 24.4875 13.5179 24.0795C13.4662 23.9365 13.0902 23.724 13.1279 23.608C13.2604 23.6245 13.4756 23.8167 13.6136 23.7407C13.7306 23.6823 13.8237 23.8056 13.9421 23.6727C13.9599 23.6477 14.1609 23.4362 14.1041 23.3967C14.0432 23.3955 14.0089 23.4293 14.0041 23.5005C13.9343 23.404 14.0548 23.3377 14.1178 23.2678C14.1375 23.2904 14.1503 23.3101 14.1636 23.3287C14.2402 23.2172 14.6499 22.6807 14.6663 22.6672C14.878 22.4234 14.7011 22.0923 14.9109 21.8983C15.1024 21.7177 15.3101 21.6015 15.5474 21.5052C15.6229 21.4754 15.8846 21.3381 15.9399 21.3519C16.3761 21.4873 16.3233 20.9663 16.6007 20.7295C16.8857 20.493 16.6761 19.2833 16.9046 19.1943C17.0279 19.1446 17.4006 18.6851 17.5951 18.475C17.7836 18.2761 17.8054 18.017 17.7351 17.759C17.6247 17.3687 17.5106 17.5921 17.2282 17.4207C17.0031 17.2861 16.8308 17.0167 16.5468 16.9791C16.3823 16.9557 16.2116 17.0061 16.0497 16.9573C15.9766 16.9356 15.7917 16.8221 15.7229 16.9173C15.7346 16.9021 15.5701 16.9791 15.5823 16.9836C15.5649 16.9711 15.5788 16.7692 15.5254 16.7188C15.4382 16.6376 15.1477 16.5548 15.042 16.5287C14.7966 16.4653 14.7386 16.7525 14.6766 16.4096C14.4738 16.3549 14.2737 16.1216 14.3098 16.0626C14.3281 16.0381 13.997 15.3405 13.9511 15.4053C13.9476 15.1705 13.2202 14.879 13.0373 14.9893C12.8707 15.1119 12.5666 14.8825 12.4634 14.7733C12.3482 14.6501 12.3526 14.515 12.1576 14.4345C12.0762 14.3999 11.9357 14.4185 11.9654 14.2754C11.9992 14.1277 11.6078 14.0975 11.5712 13.9512C11.6267 13.9608 11.6745 13.9333 11.7257 13.9205C11.574 13.9733 11.3897 13.8635 11.238 13.9838C11.0206 14.1653 10.8904 13.8993 10.6524 13.9473C10.349 14.0038 10.5524 13.8931 10.3614 13.7753C10.4409 13.825 10.0077 13.5787 10.1089 13.5859C10.0188 13.5774 10.1226 13.7376 10.0214 13.7713C9.86442 13.8291 9.7273 13.8668 9.83048 14.0563C10.0034 14.4022 9.46667 14.2398 9.72073 14.0038C9.76555 13.9643 9.77705 13.5115 9.82748 13.528C9.76542 13.5059 9.27548 13.8245 9.21804 13.8923C9.06079 13.6388 8.79529 14.5146 8.70767 14.5231C8.66242 14.3076 8.45679 14.2182 8.27773 14.1558C8.12717 14.0972 7.97373 14.4591 7.77435 14.2617C7.42217 13.9022 7.5766 13.3259 7.7566 12.9182C7.83098 12.7315 7.10367 12.6736 7.01454 12.7496C6.83629 12.8945 7.04204 12.4491 7.0406 12.4641C7.0611 12.2836 7.10298 12.1632 7.1811 12.1688C7.22992 12.0627 7.50029 11.5758 7.47054 11.5184C7.36223 11.2624 6.90204 11.7139 6.8606 11.8283C6.81373 11.9394 6.72429 11.9998 6.68285 12.0998C6.63948 12.2013 6.55466 12.0773 6.48141 12.1182C6.28366 12.2302 5.99948 12.1728 6.04429 11.8846C6.08748 11.5378 5.9566 10.854 6.34541 10.6171C6.46492 10.5431 6.48267 10.1976 6.61867 10.0756C6.63723 10.0611 7.02954 9.83258 6.9916 9.78764C7.04904 9.8497 7.35754 9.72539 7.39754 9.80489C7.4281 9.87164 7.60985 9.94008 7.67273 9.90395C7.66935 9.9107 7.70617 9.7507 7.70617 9.7492C7.69835 9.74745 7.57848 9.73114 7.58392 9.6932C7.59817 9.63926 7.96761 9.67526 7.97829 9.6767C8.15317 9.68995 8.28323 9.8327 8.41154 9.74614C8.61429 9.61064 8.49061 10.5081 8.57011 10.59C8.61429 10.6383 8.58211 10.7474 8.66754 10.7365C8.78098 10.7255 8.81842 9.5722 9.11536 9.33233C9.33198 9.15889 9.5683 9.00095 9.80848 8.87139C9.88467 8.83189 10.085 8.73701 10.1256 8.66001C10.1159 8.62226 10.0816 8.57908 10.039 8.61745C10.027 8.54495 10.147 8.58995 10.1675 8.51551C10.1906 8.44158 10.107 8.41901 10.1159 8.39345C10.1128 8.39907 10.1906 8.24095 10.1635 8.26307C10.1675 8.26676 10.1675 8.27364 10.1685 8.27682C10.2877 8.29701 10.1424 8.16657 10.1384 8.14645C10.2947 8.22707 10.2279 7.9762 10.3808 7.96195C10.2714 8.00801 10.2926 8.1312 10.3069 8.2047C10.3389 8.37045 10.4834 7.97764 10.4664 7.9922C10.6135 7.93301 10.8412 7.81026 10.9982 7.69895C10.9615 7.6852 10.9236 7.7137 10.8791 7.68245C11.0397 7.62226 11.2209 7.6412 11.3735 7.56276C11.3663 7.40051 11.464 7.23189 11.6467 7.1997C11.928 7.1557 12.2531 6.9842 12.5319 6.88995C12.4893 6.9847 12.5544 6.9112 12.6304 6.9477C12.5394 6.7117 12.0442 7.3837 12.2795 7.2472C12.4786 7.13426 13.1498 7.02882 13.2405 6.83645C13.2387 6.82364 13.1963 6.69582 13.1973 6.69582C13.0314 6.69582 13.0182 6.90001 12.8135 6.89889C12.4453 6.89489 12.669 6.66738 12.5912 6.56451C12.5247 6.58101 12.47 6.56307 12.4236 6.51157C12.4615 6.50501 12.9175 6.39957 12.6776 6.34563C12.2871 6.26163 12.0267 6.69601 11.7051 6.68595C11.9439 6.53907 12.272 6.22707 12.564 6.18707C12.8729 6.14357 13.3059 6.29557 13.5777 6.10451C13.8232 5.93713 13.9886 6.05907 14.124 5.78563C14.1674 5.71057 13.9471 5.61538 13.8907 5.6047C13.9138 5.5767 13.9627 5.6047 13.9837 5.55763C13.6163 5.39395 13.5395 5.2327 13.4954 4.80982C13.3099 4.94532 12.6831 5.23545 13.0184 4.76182C12.8975 4.71094 12.5182 4.39401 12.3721 4.61238C12.306 4.71094 12.1996 4.87544 12.089 4.92663C11.839 5.04007 12.061 5.01882 11.9762 5.18426C11.836 5.4572 11.497 5.42076 11.3365 5.66045C11.2345 5.81163 11.2035 5.91757 11.045 5.9867C10.9079 6.04876 10.855 5.8872 10.9235 5.7582C10.9714 5.81163 11.0155 5.82013 11.056 5.77963C11.068 5.71901 10.9839 5.74732 10.9564 5.7267C11.0053 5.64013 11.0661 5.5627 11.1352 5.49232C11.1106 5.47938 10.7595 5.42351 10.7733 5.33182C10.796 5.13932 10.5555 5.24382 10.511 5.18688C10.6982 4.94994 10.6982 4.84144 11.0679 4.65632C11.1941 4.59457 11.8979 4.23313 12.0291 4.32238C12.0131 4.40463 11.9277 4.38813 11.879 4.42763C11.981 4.45438 12.2756 4.48713 12.3744 4.41657C12.3544 4.39657 12.2349 4.20232 12.2965 4.15513C12.2876 4.16363 12.4996 4.15913 12.5147 4.15369C12.6276 4.12713 12.7519 4.11226 12.817 3.99819C12.8725 3.89513 13.2452 3.76332 13.3338 3.81419C13.8232 4.09113 12.6735 4.38413 12.6612 4.35419C12.6849 4.43419 12.9943 4.29594 13.0726 4.50813C13.0924 4.56013 13.4434 4.67551 13.4777 4.62557C13.4997 4.60107 13.3764 4.47182 13.3727 4.44063C13.7414 4.62082 13.7235 4.52669 13.6617 4.27969C13.6031 4.04369 13.8791 4.29444 13.8929 4.30276C13.9537 4.33426 14.2049 4.19026 14.2426 4.13857C14.1506 4.07007 13.9957 4.07182 13.9152 3.98738C13.8418 3.91457 14.1096 3.89538 14.0152 3.81888C13.9037 3.72782 13.7285 3.75088 13.79 3.57069C13.7263 3.55194 13.6646 3.55963 13.6072 3.59438C13.6245 3.62688 13.6618 3.60188 13.6752 3.62044C13.6125 3.65707 13.5432 3.66269 13.4744 3.66044C13.4957 3.63038 13.5602 3.63038 13.5616 3.56969C13.3694 3.54601 13.2674 3.66044 13.1013 3.71144C13.1493 3.64344 13.2282 3.62251 13.2867 3.57082C13.1048 3.59501 12.9316 3.66057 12.7879 3.78201C12.8079 3.80251 12.8306 3.82151 12.8418 3.84857C12.7032 3.97163 12.5176 4.01063 12.3544 4.08407C12.3821 3.97513 12.5013 4.00101 12.5389 3.91957C12.4784 3.91957 12.4206 3.93507 12.3672 3.96007C12.4373 3.94969 12.6424 3.74569 12.6879 3.69369C12.3922 3.65819 12.2676 4.04407 11.9859 3.98907C12.045 3.91963 12.1632 3.95482 12.2029 3.84857C12.0998 3.86057 11.707 4.12838 11.642 3.98907C11.639 3.97932 12.3617 3.69369 12.4371 3.58969C12.3883 3.58294 12.3331 3.63226 12.2902 3.57463C12.325 3.53669 12.3832 3.53126 12.4231 3.49013C12.188 3.48757 11.4824 3.77507 11.5347 3.94007C11.4444 4.01463 11.3467 4.03257 11.2344 3.98757C11.2772 3.91863 11.432 3.91751 11.3072 3.81863C11.0802 3.90169 10.8586 3.99463 10.6378 4.09207C10.127 4.31832 9.62817 4.58213 9.15636 4.87588C8.37573 5.3602 7.7271 5.93095 7.08273 6.57907C6.74079 6.92657 5.43585 8.45026 5.44098 8.76914C5.44354 9.00289 5.30548 9.21151 5.2176 9.42308C5.14723 9.59508 5.13635 9.83526 5.05266 9.99445C4.8626 10.3341 4.94866 10.725 4.86304 11.1145C4.97154 11.0313 5.19185 9.25301 5.38579 9.3212C5.4226 9.3332 5.26579 10.0606 5.22691 10.1495C5.06516 10.5228 5.27841 10.9783 5.17173 11.3676C5.15973 11.4068 5.10648 11.6038 5.10516 11.6445C4.92547 11.7816 5.15266 11.9877 5.15123 12.1386C5.15123 12.2293 5.60816 12.63 5.6986 12.6829C5.88948 12.7976 5.9271 12.594 6.10291 12.63C6.25985 12.6629 6.3061 12.9495 6.39141 13.0722C6.5026 13.2404 6.93092 13.2204 7.00742 13.2994C7.05492 13.3613 7.01335 13.6883 7.20835 13.7348C7.20754 13.7116 7.20342 13.5973 7.2311 13.5796C7.29092 13.5445 7.41604 13.7623 7.37335 13.8013C7.3121 13.8159 7.25685 13.7933 7.20917 13.7348C7.20917 13.7644 7.17798 14.1917 7.30198 14.1087C7.30392 14.083 7.31223 14.055 7.31492 14.0292C7.48017 14.1009 7.46692 14.3406 7.58167 14.3741C7.74135 14.4178 7.86329 14.6186 7.98167 14.6748C8.08904 14.7305 8.05911 14.2991 8.26442 14.2778C8.42967 14.2636 8.52267 14.6926 8.57867 14.797C8.66667 14.9487 8.46267 15.313 8.57592 15.4288C8.68854 15.5503 8.29273 15.8348 8.27254 15.9557C8.26004 16.0482 8.05779 16.1363 8.06504 16.1714C8.08054 16.2712 8.02186 16.4091 7.98442 16.5055C7.88348 16.7731 7.93323 16.7973 8.10779 16.9212C8.11342 16.9261 7.78504 17.5741 7.97354 17.7415C8.26973 17.9855 8.66348 18.5888 8.75948 18.9675C8.95292 19.4887 9.24954 19.8087 9.74511 20.0666C10.1497 20.2795 10.4357 20.6381 10.4357 21.1261C10.4512 21.4115 10.4072 21.7682 10.5294 22.0376C10.6139 22.2235 10.4531 22.5308 10.5731 22.7014C10.6522 22.8057 10.55 22.8673 10.5959 22.9642C10.6421 23.0698 10.7533 23.2453 10.7507 23.3688C10.7474 23.5723 10.7507 23.8166 10.7642 24.019C10.7679 24.0875 10.7035 24.205 10.7376 24.2498C10.7848 24.3063 11.0604 24.9847 11.0604 25.1813C11.0594 25.2293 11.2724 25.1702 11.0805 24.9773C11.3076 24.8493 11.2618 25.3843 11.2775 25.3877C11.0733 25.3206 11.2037 25.3757 11.221 25.6385C11.2319 25.7937 11.1807 25.72 11.3075 25.7494C11.5112 25.7936 11.3075 25.9294 11.3842 26.0383C11.535 26.2571 11.7709 26.4596 11.9296 26.628C12.1885 26.9043 12.6333 26.8589 12.9424 26.9229C12.8864 26.9123 12.9879 26.9332 12.9424 26.9229ZM13.7936 5.62982C13.7239 5.69432 13.6447 5.70582 13.5647 5.73076C13.6218 5.64182 13.7047 5.65638 13.7936 5.62982ZM13.1147 5.57238C13.1667 5.56276 13.2102 5.57845 13.2387 5.61382C13.2397 5.63576 12.9608 5.64982 12.916 5.71907C12.9529 5.59926 13.0546 5.61926 13.1147 5.57238C13.0546 5.61926 13.1436 5.60757 13.1147 5.57238ZM12.4312 6.05482C12.4895 6.07063 12.345 6.04232 12.4312 6.05482C12.4335 6.05576 12.4144 6.0527 12.4312 6.05482ZM12.055 5.33813C12.08 5.31063 12.1005 5.31476 12.1142 5.35188C12.089 5.38232 12.0666 5.37688 12.055 5.33813C12.0515 5.35738 12.0555 5.3217 12.055 5.33813ZM11.68 6.45382C11.5759 6.44807 11.7906 6.45913 11.68 6.45382C11.668 6.45382 11.6955 6.45513 11.68 6.45382ZM11.7906 6.02232C11.4297 6.36376 11.7114 6.02632 11.6057 6.13226C11.6073 6.13657 11.6057 6.14232 11.601 6.14232C11.5706 6.11013 11.7839 6.0257 11.7906 6.02232C11.7285 6.03226 11.7466 6.0657 11.7906 6.02232ZM11.6586 5.62057C11.592 5.69576 11.592 5.69576 11.5017 5.67932C11.5501 5.64682 11.6155 5.65782 11.6586 5.62057ZM13.2827 4.33657C13.2597 4.33801 13.2333 4.33801 13.1981 4.33801C13.314 4.23957 13.2938 4.33657 13.2827 4.33657C13.2999 4.33657 13.2599 4.33801 13.2827 4.33657ZM13.5442 4.16213C13.5051 4.20819 13.4469 4.18119 13.3979 4.20407C13.4503 4.10213 13.4607 4.10107 13.5442 4.16213ZM12.0716 4.28263C12.1031 4.25557 12.1416 4.23957 12.1801 4.24357C12.2149 4.29432 11.9596 4.32326 12.0716 4.28263C12.0596 4.28776 12.089 4.25557 12.0716 4.28263ZM12.008 4.20807C12.0479 4.22807 12.0444 4.24551 11.9956 4.26644C11.9609 4.24551 11.9649 4.22807 12.008 4.20807C11.9866 4.21001 12.023 4.20807 12.008 4.20807ZM10.1015 7.45851C10.1049 7.45595 9.53173 7.68745 9.57461 7.54376C9.56261 7.59001 9.77186 7.38201 9.72755 7.40201C9.77505 7.38107 10.1589 7.35832 10.2714 7.35945C10.2129 7.41995 10.1559 7.43739 10.1015 7.45851C10.1559 7.43739 9.97586 7.50551 10.1015 7.45851ZM10.56 7.17401C11.0343 7.22057 10.2786 7.3652 10.1978 7.27895C10.3044 7.18726 10.43 7.16026 10.56 7.17401C10.43 7.16026 10.5981 7.17995 10.56 7.17401ZM10.4823 4.23351C10.6094 4.15257 10.7437 4.09401 10.9089 4.05444C10.7868 4.15494 10.6258 4.19719 10.4785 4.23701L10.4823 4.23351ZM10.5084 6.79001C10.4864 6.81207 10.4664 6.81051 10.4471 6.78951C10.477 6.77707 10.5049 6.76888 10.5084 6.79001C10.5049 6.76888 10.5186 6.81051 10.5084 6.79001ZM10.3687 7.07451C10.359 7.07451 10.3218 7.06251 10.3687 7.07451C10.3724 7.07451 10.3536 7.06826 10.3687 7.07451ZM10.23 6.83113C10.4025 6.91163 10.3034 7.18007 10.1545 6.97207C10.1495 7.09351 9.93542 7.30357 9.82105 7.32857C9.86411 7.27895 9.87898 7.22507 9.86423 7.16714C9.82711 7.13864 9.75623 7.22057 9.71655 7.21864C9.73142 7.29464 10.0252 6.71832 9.77848 6.88426C9.68998 6.9537 9.09786 7.58282 9.06411 7.5462C9.00861 7.4907 9.32504 7.02939 9.34904 7.01182C9.55248 6.84507 9.97586 6.71207 10.23 6.83113ZM9.90036 4.63351C9.92486 4.62069 10.1147 4.50313 10.1387 4.53044C10.1997 4.60644 9.8328 4.70182 9.81598 4.70294C9.83648 4.65626 9.87267 4.65144 9.90036 4.63351C9.87267 4.65144 9.96786 4.59657 9.90036 4.63351ZM9.94098 6.17688C9.93923 6.1857 9.86417 6.32763 9.82098 6.27163C9.78148 6.23307 9.92817 6.11013 9.94098 6.17688C9.93648 6.15895 9.93542 6.21413 9.94098 6.17688ZM9.5258 4.98694C9.54673 4.98694 9.8543 4.79257 9.86417 4.87144C9.86917 4.89494 9.49011 4.99194 9.5258 4.98694ZM9.44048 5.30182C9.42142 5.33688 9.4048 5.35507 9.35998 5.35332C9.37748 5.31657 9.40486 5.31382 9.44048 5.30182ZM9.22704 6.04232C9.27011 6.00857 9.36961 5.84726 9.32079 5.78582C9.34898 5.8202 9.13661 5.76232 9.23404 5.72676C9.27354 5.71332 9.51242 5.58182 9.55242 5.62276C9.62092 5.69426 9.25117 6.08038 9.17804 6.1122C9.18642 6.07413 9.20579 6.05688 9.22704 6.04232C9.20579 6.05688 9.28848 5.99626 9.22704 6.04232ZM9.43698 6.5297C9.70148 6.4452 9.7973 6.29432 9.95586 6.4982C10.0178 6.57295 10.0053 6.76763 9.86405 6.72076C9.9023 6.73501 9.43398 6.6902 9.52023 6.6387C9.42598 6.69613 9.24598 6.7382 9.13561 6.6902C9.23811 6.63257 9.3253 6.56457 9.43698 6.5297C9.3253 6.56457 9.50305 6.50757 9.43698 6.5297ZM9.06805 6.0367C9.09255 6.1007 9.07604 6.1322 9.00261 6.14213C9.03061 6.1007 9.05061 6.0692 9.06805 6.0367ZM5.31829 11.7386C5.19779 11.7341 5.41185 11.7341 5.31829 11.7386C5.30404 11.7381 5.33029 11.7381 5.31829 11.7386ZM6.83235 12.8261C6.79698 12.839 6.92498 12.8054 6.83235 12.8261C6.82404 12.83 6.84773 12.823 6.83235 12.8261ZM10.5244 14.048C10.4618 14.0364 10.599 14.0537 10.5244 14.048C10.519 14.048 10.5346 14.0497 10.5244 14.048ZM11.1307 24.8753C11.0252 24.8563 11.1863 24.7937 11.1307 24.8753C11.1045 24.8721 11.1322 24.8721 11.1307 24.8753ZM11.3997 19.4598C11.3615 19.42 11.4221 19.4793 11.3997 19.4598C11.3946 19.4532 11.4067 19.4647 11.3997 19.4598ZM11.4407 22.8318C11.3736 22.8548 11.5138 22.8055 11.4407 22.8318C11.4235 22.839 11.4522 22.8281 11.4407 22.8318ZM11.7975 26.4684C11.7495 26.4409 11.7495 26.4235 11.7938 26.4159C11.8467 26.4366 11.8485 26.4564 11.7975 26.4684C11.8141 26.4721 11.7776 26.4668 11.7975 26.4684ZM12.2681 26.6753C12.2201 26.6649 12.2236 26.6468 12.2831 26.6185C12.3245 26.6334 12.3187 26.6543 12.2681 26.6753C12.2801 26.6708 12.2482 26.6753 12.2681 26.6753ZM11.2704 25.3316C11.2637 25.3342 11.2581 25.3353 11.2539 25.3365C11.2692 25.3267 11.2727 25.3246 11.2704 25.3316ZM12.4397 3.58919C12.4397 3.58919 12.4385 3.58919 12.4377 3.58919C12.4385 3.58919 12.4385 3.58663 12.4385 3.58663L12.4397 3.58919ZM8.00292 5.69176C8.00292 5.69432 8.00117 5.69432 8.00117 5.69432L8.00292 5.69176ZM28.8506 13.6607L28.8518 13.6616C28.5963 12.7194 28.4086 11.7895 28.0161 10.8789C27.555 9.79539 26.9457 8.77408 26.2097 7.85426C25.5164 6.98501 24.7146 6.20751 23.8239 5.54276C23.3905 5.21588 22.9374 4.92151 22.466 4.65351C22.2441 4.52407 22.0174 4.40057 21.782 4.28663C21.6803 4.23813 21.3281 4.14601 21.2738 4.05669C21.2769 4.09844 21.482 4.20244 21.5069 4.22963C21.3709 4.19313 21.0053 4.03857 20.9988 4.01569C21.0088 3.99826 21.0348 4.01569 21.0317 3.98719C20.8249 3.85519 20.0568 3.57057 19.9018 3.78176C19.9328 3.73838 20.4344 4.31519 20.4451 4.41888C20.4792 4.64338 20.8279 4.88207 21.0552 4.95251C21.3621 5.05776 21.131 4.91826 21.2589 4.84594C21.3456 4.80451 21.4269 4.98944 21.5037 4.94544C21.5014 4.94401 21.5037 4.94194 21.5066 4.94051C21.4871 4.89651 21.4591 4.85557 21.4358 4.81201C21.4109 4.81201 21.9992 5.41745 22.0733 5.28545C22.0059 5.12176 21.9009 4.93601 21.7293 4.78176C21.5862 4.64338 21.3507 4.63057 21.1926 4.49201C21.1139 4.42194 20.8146 4.20401 20.78 4.10338C21.1765 4.11713 21.6325 4.94901 22.0254 4.62657C21.9708 4.59007 21.9174 4.54913 21.8671 4.50419C21.9378 4.52613 22.2713 4.63157 22.16 4.76963C21.8437 4.71457 22.4214 5.03507 22.4349 5.07157C22.3773 5.06707 22.3373 5.02151 22.2838 5.01651C22.3049 5.12676 22.6149 5.23845 22.6406 5.42545C22.4523 5.45457 22.5341 5.31295 22.4084 5.46451C22.3726 5.51138 22.2027 5.49795 22.1142 5.5047C21.8979 5.52213 21.6561 5.15576 21.498 5.04357C21.5636 5.24632 21.6751 5.3452 21.9058 5.49045C22.0169 5.55251 21.7514 5.5802 21.7549 5.67395C21.761 5.67395 21.8252 5.70482 21.8233 5.72145C21.8233 5.73438 21.7636 5.68095 21.7549 5.67395C21.7754 5.65795 21.7149 6.03188 21.7098 6.02645C21.8869 6.2332 21.477 6.17238 21.4641 6.18038C21.4981 6.22726 21.5631 6.24982 21.5758 6.31876C21.4569 6.32482 21.3577 6.30913 21.2421 6.35045C21.4108 6.40101 22.3485 6.83464 22.1424 7.16039C22.0801 7.26664 21.4453 7.13464 21.3296 7.1292C21.0816 7.11257 21.3093 7.36426 21.3178 7.39339C21.354 7.57995 21.5001 7.66107 21.49 7.87964C21.4782 8.03357 21.6366 8.03801 21.6799 8.16701C21.7243 8.27951 21.7014 8.29151 21.8179 8.3062C22.0265 8.33295 22.0315 8.30095 22.2064 8.43739C22.3336 8.53614 22.3836 8.34889 22.5316 8.3422C22.9051 8.32701 22.5884 8.2507 22.7651 8.20045C22.9828 8.13901 22.7041 7.79407 22.7153 7.72682C22.7299 7.63707 22.7031 7.53564 22.8219 7.50157C23.0129 7.45264 22.7724 7.25776 22.7595 7.20507C22.7208 7.0507 23.2808 7.33451 23.2091 6.94539C23.5338 7.04664 23.8619 7.33307 24.1544 7.50057C24.3324 7.60507 24.5033 7.70332 24.6301 7.87001C24.7823 8.06651 24.4129 7.98457 24.3918 8.04151C24.3661 8.10501 24.7164 8.26245 24.7713 8.25701C24.7798 8.22407 24.7279 8.02357 24.7239 7.98807C24.7081 7.85014 24.5063 7.71414 24.5193 7.60264C24.5822 7.6087 24.6381 7.63414 24.6939 7.67207C24.5054 7.44357 24.2001 7.4212 23.9875 7.2492C23.8621 7.14426 23.6995 7.05976 23.5707 6.95176C23.5707 6.95082 23.3462 6.66232 23.5039 6.71832C23.754 6.80295 24.0256 7.05639 24.2814 7.1892C24.4826 7.29576 24.5279 7.35957 24.6782 7.53414C24.7364 7.60264 25.0486 7.96232 25.1211 7.97557C25.1168 7.97207 25.3702 8.20051 25.4733 8.23651C25.4275 8.13157 25.3913 8.00001 25.3371 7.91457C25.2639 7.80176 24.9768 7.73889 24.9768 7.5677C25.0403 7.57476 25.0486 7.50495 25.1907 7.50976C25.1166 7.5067 25.2832 7.3997 25.2704 7.4152C24.999 7.26082 24.6339 6.80926 24.5398 6.50238C24.6131 6.50545 24.6539 6.60495 24.7331 6.55388C24.7083 6.50238 24.7028 6.44845 24.7083 6.39082C24.7281 6.41576 24.986 6.63432 24.9332 6.67882C24.8628 6.67788 24.8043 6.64488 24.7514 6.58938C24.7852 6.71882 24.9172 6.72088 24.9692 6.81082C24.9741 6.77388 24.9471 6.74426 24.9804 6.70632C25.2026 6.79926 25.6616 7.15626 25.7202 7.4052C25.6229 7.41607 25.4371 7.20826 25.3669 7.25957C25.3481 7.31064 25.3495 7.35832 25.3761 7.40707C25.3486 7.40801 25.3199 7.41601 25.2973 7.42982C25.3356 7.45864 25.3525 7.49689 25.3575 7.54057C25.3196 7.55339 25.2878 7.56314 25.2466 7.57451C25.2804 7.69914 25.9407 8.33132 25.9868 8.26714C26.0008 8.24457 25.9628 8.17945 25.9726 8.17082C26.0039 8.13132 26.1078 8.31482 26.163 8.27707C26.2076 8.2502 26.1225 8.19182 26.1724 8.16732C26.2686 8.11582 26.6676 8.89564 26.7162 8.9862C26.9047 9.34714 26.7796 9.1262 26.6328 9.17614C26.6141 9.21564 26.5991 9.25164 26.5959 9.29664C26.363 9.2432 26.1077 9.10864 25.9226 8.9747C25.621 8.75676 26.0191 9.56301 25.8434 9.46158C25.7422 9.40333 25.6814 9.31901 25.5585 9.3072C25.3723 9.28814 25.3203 9.09439 25.1542 9.03826C25.0206 8.99233 24.4769 8.94176 24.5496 8.69539C24.6059 8.48289 24.3364 8.30801 24.2432 8.22739C24.196 8.18676 23.5984 8.26401 23.4997 8.29345C23.3357 8.34639 23.0746 8.40032 22.9808 8.55458C22.8213 8.84276 22.4554 8.46258 22.3069 8.52133C22.2321 8.55458 22.3053 8.79076 22.2681 8.86451C22.2051 8.97926 22.0619 8.98626 22.0239 9.11926C21.9608 9.36264 22.143 9.56664 22.0619 9.79158C21.9902 9.96951 21.6475 10.0468 21.6425 10.1946C21.6394 10.2737 21.6216 10.3601 21.5503 10.4031C21.3934 10.4932 21.5541 10.7001 21.4563 10.8031C20.9236 11.342 21.6254 11.8724 21.507 12.4673C21.4387 12.8043 21.3998 12.8715 21.5448 13.1617C21.5761 13.2345 21.5528 13.7582 21.8166 13.5462C21.8521 13.8511 22.242 13.9147 22.3092 14.2038C22.3954 14.5466 22.7301 14.696 22.9926 14.9026C23.0974 14.9835 23.1892 15.09 23.3078 15.1508C23.5229 15.2634 23.6684 15.0914 23.8737 15.035C24.0619 14.982 24.2535 15.0015 24.4274 15.0839C24.5281 15.1314 25.2806 14.602 25.4798 14.701C25.6298 14.7761 25.6363 14.9562 25.7081 15.0865C25.8074 15.2705 26.0103 15.03 26.1492 15.0905C26.3975 15.201 26.4671 16.0993 26.26 16.267C26.104 16.381 26.4611 16.8721 26.5097 16.9708C26.652 17.2492 26.7764 17.7327 26.7328 18.0415C26.6958 18.2895 26.7675 18.6855 26.6235 18.9063C26.4795 19.1263 26.4001 19.3603 26.2864 19.6092C25.9872 20.2512 26.2707 20.975 26.0193 21.6407C25.8649 21.981 25.8908 22.3445 25.8093 22.6991C25.7555 22.9305 25.4736 23.2626 25.583 23.5008C25.7521 23.35 25.9985 23.37 26.1878 23.2749C26.5738 23.0843 26.76 22.6384 27.0395 22.3412C27.1904 22.184 27.2846 21.9852 27.3706 21.7914C27.4559 21.6068 27.6266 21.4876 27.709 21.309C27.9019 20.8516 28.084 20.3962 28.2776 19.9404C28.6921 18.9564 28.7627 18.0113 28.9043 16.9561C29.058 15.8348 29.0612 14.7756 28.8506 13.6607ZM27.8692 11.0663C27.8156 10.9343 27.1167 9.91308 27.1985 9.85783C27.2936 9.79908 28.7802 12.4343 28.6205 12.8415C28.3925 12.2398 28.1181 11.6566 27.8692 11.0663C27.9202 11.1857 27.8661 11.0603 27.8692 11.0663ZM28.5053 15.7251C28.4757 15.6539 28.5154 15.5899 28.5351 15.5045C28.566 15.5943 28.517 15.6574 28.5053 15.7251ZM28.425 16.1398C28.4225 16.0961 28.422 16.0603 28.4508 16.0286C28.4713 16.0708 28.4529 16.1015 28.425 16.1398ZM28.1804 19.5217C28.1532 19.53 28.1228 19.5415 28.0991 19.5499C28.0515 19.5499 28.1884 19.4859 28.1955 19.4795C28.1879 19.502 28.1879 19.5124 28.1804 19.5217C28.1879 19.5124 28.1591 19.5502 28.1804 19.5217ZM28.2155 18.1486C28.2134 18.0227 28.2196 18.0171 28.3484 17.9371C28.3195 18.0243 28.23 18.066 28.2155 18.1486ZM28.3573 17.5092C28.3557 17.2795 28.3503 17.0108 28.3996 16.786C28.4087 17.1764 28.425 17.5692 28.4146 17.9595C28.3529 17.878 28.3573 17.6086 28.3573 17.5092C28.3573 17.5897 28.3573 17.4262 28.3573 17.5092ZM28.5635 18.2387C28.5596 18.4484 28.528 19.0201 28.3926 19.1818C28.4049 18.8293 28.5335 18.5078 28.5385 18.1562C28.5698 18.1912 28.5635 18.2174 28.5635 18.2387C28.5635 18.2174 28.5635 18.2635 28.5635 18.2387ZM28.7258 16.1068C28.666 16.3551 28.7247 16.4336 28.5748 16.5726C28.5748 16.3851 28.5076 16.0313 28.696 15.9214C28.7235 15.9807 28.7428 16.0313 28.7258 16.1068C28.7428 16.0313 28.6975 16.2061 28.7258 16.1068ZM20.5266 28.2393C20.5454 28.2774 18.8807 28.7439 18.7101 28.7825C18.0202 28.9263 17.3197 29.0185 16.6114 29.0525C15.2702 29.1169 13.8652 28.9956 12.5769 28.604C12.7434 28.6229 12.9423 28.7079 13.1112 28.6805C12.9503 28.581 12.7524 28.6151 12.6093 28.4905C13.1493 28.5772 13.6621 28.5356 14.1542 28.6009C14.1034 28.5316 13.6514 28.4234 13.6546 28.3757C13.7214 28.3709 14.0643 28.3612 14.0819 28.3487C14.2439 28.2247 13.8229 28.2394 13.8554 28.1479C13.8726 28.1242 13.9871 28.1627 14.0276 28.109C14.0919 28.0242 14.0276 27.979 14.0498 27.9368C14.0681 27.8977 14.722 27.7856 14.7895 27.8152C14.7116 27.8617 14.6242 27.8077 14.6551 27.9349C14.5903 27.926 14.3879 27.9312 14.3759 28.0197C14.3809 27.9977 14.5961 28.2985 14.6034 28.3131C14.6812 28.4299 14.9444 28.502 14.9622 28.6425C15.0071 28.8785 16.2467 28.8576 16.4286 28.8358C16.8922 28.783 17.3234 28.6166 17.7814 28.54C18.0508 28.4907 18.3207 28.4157 18.5942 28.3878C18.7196 28.374 19.1444 28.2265 19.2436 28.2606C19.3095 28.48 20.2936 28.1923 20.5266 28.2393C20.4879 28.2326 20.5282 28.2427 20.5266 28.2393ZM28.049 21.027C28.102 20.8935 28.1456 20.7556 28.2114 20.6244C28.1675 20.7649 28.1096 20.8945 28.049 21.027ZM28.2656 20.487C28.2706 20.4707 28.2775 20.4515 28.2871 20.439C28.2882 20.4561 28.2721 20.4713 28.2656 20.487ZM13.9801 3.38282C13.9057 3.37132 13.8337 3.38026 13.7572 3.36775C13.7974 3.33432 14.0156 3.32726 13.9234 3.26457C14.2212 3.07932 14.8521 3.04332 15.2002 3.08582C15.5873 3.13144 15.9745 3.01238 16.3615 3.07207C16.5167 3.09732 16.6497 3.10088 16.8032 3.11144C16.9401 3.1265 16.7866 3.26469 16.9401 3.28794C17.0272 3.30075 17.2104 3.50344 17.2908 3.46138C17.2876 3.60188 17.2239 3.50282 17.2697 3.63576C17.2797 3.66826 17.4388 3.75719 17.4337 3.76826C17.4186 3.78919 16.9873 3.75913 17.0047 3.76332C16.9684 3.75932 17.0111 3.83182 17.042 3.82026C17.1249 3.84282 17.3145 3.81419 17.41 3.82119C17.1872 4.02026 16.8611 3.99544 16.6197 4.15513C16.4708 4.25419 16.2471 4.24363 16.0809 4.30438C16.0809 4.47094 15.9567 4.67413 15.8457 4.84601C15.7652 4.96457 15.214 4.68888 15.1589 4.61963C15.0389 4.47357 14.7613 4.09582 15.0604 3.97582C15.4236 3.83357 15.0637 3.94926 14.9557 3.87244C15.0439 3.75151 15.1404 3.79194 15.2754 3.81226C15.2062 3.71369 15.1164 3.68951 15.0122 3.73994C14.9806 3.63594 15.1644 3.54344 15.0017 3.43257C14.9331 3.38407 14.5473 3.44107 14.5369 3.37207C14.5159 3.20663 15.0025 3.29657 15.0905 3.15813C14.7253 3.08025 14.3321 3.43769 13.9801 3.38282C14.0426 3.39207 13.9056 3.37126 13.9801 3.38282ZM20.8554 5.87432C20.9148 5.86757 20.7775 5.68088 20.7474 5.64182C20.7887 5.64788 20.8206 5.65076 20.8623 5.62676C20.8297 5.54276 20.4479 5.32038 20.4255 5.33682C20.2809 5.42688 20.0975 5.02482 20.0807 4.97044C20.3276 4.93763 20.4805 5.20119 20.7023 5.30932C20.894 5.39938 21.5734 5.72626 21.5938 5.93045C21.6087 6.0322 21.0776 5.9917 20.9989 6.1117C20.9372 5.96082 21.1314 5.9642 21.1279 5.91732C21.1213 5.87895 20.8813 5.87126 20.8554 5.87432C20.9356 5.86326 20.8421 5.87576 20.8554 5.87432ZM13.894 6.0657C13.8557 6.09145 13.3948 6.53063 13.4076 6.57288C13.4169 6.61113 13.8873 6.58263 13.9652 6.63032C13.9603 6.68407 13.8984 6.65657 13.8887 6.70313C13.9497 6.70313 14.1417 6.58263 14.1692 6.61751C14.1727 6.64663 14.1692 6.67845 14.1545 6.70601C14.3637 6.90938 14.3397 6.46601 14.3559 6.44295C14.2082 6.42101 14.3836 6.21557 14.1402 6.30201C14.1545 6.29545 13.8745 6.21801 13.8873 6.23545C13.8621 6.21401 14.0873 6.01995 14.1047 5.99451C13.9706 5.9607 13.9546 6.02026 13.894 6.0657C13.91 6.0527 13.8169 6.1247 13.894 6.0657ZM14.3511 6.55082C14.3685 6.5657 14.3176 6.5657 14.3511 6.55082C14.3559 6.55351 14.3458 6.5527 14.3511 6.55082ZM14.2466 6.53913C14.2604 6.52407 14.3351 6.49288 14.2861 6.53563C14.2714 6.56457 14.2052 6.58663 14.2466 6.53913C14.2391 6.55082 14.2511 6.53207 14.2466 6.53913ZM13.9157 6.00663L13.9234 6.00488C13.9234 6.00663 13.9234 6.00713 13.9257 6.00938C13.9234 6.00726 13.9234 6.00726 13.9157 6.00663ZM13.5023 6.42488C13.5156 6.42488 13.5231 6.42488 13.5334 6.43432C13.522 6.43432 13.4712 6.43226 13.5023 6.42488C13.4936 6.42663 13.5156 6.42488 13.5023 6.42488ZM8.96754 11.874C8.84129 11.888 9.05123 11.7766 9.03361 11.7335C8.94642 11.5361 8.35423 11.4921 8.29967 11.3333C8.32529 11.3241 8.34448 11.3056 8.35167 11.2799C8.14717 11.1981 8.04317 11.4441 7.86273 11.4303C8.24192 10.7832 9.18723 11.5218 9.56642 11.8195C9.36755 11.8446 9.16786 11.8461 8.96754 11.874C9.07892 11.8595 8.95267 11.8751 8.96754 11.874ZM9.46211 12.218C9.36755 12.1768 9.77505 12.1811 9.83042 12.159C9.74736 12.0337 9.82355 11.967 9.66548 11.9175C9.80823 11.7455 10.2831 11.9476 10.4329 12.0145C10.4199 12.035 10.393 12.0167 10.3774 12.0434C10.3903 12.0525 10.7033 12.3119 10.4929 12.2255C10.2604 12.1269 10.1346 12.2638 9.96948 12.3558C9.84198 12.1731 9.63248 12.2985 9.46211 12.218C9.50098 12.2371 9.44148 12.2095 9.46211 12.218ZM20.5241 5.60982C20.7453 5.8407 20.401 6.01876 20.2431 5.86982C20.1694 5.79076 20.2156 5.60488 20.0356 5.55095C20.083 5.53545 20.1307 5.5217 20.179 5.5047C20.0589 5.21994 20.4649 5.55082 20.5241 5.60982C20.5049 5.59113 20.5696 5.66232 20.5241 5.60982ZM17.6314 4.21319C17.6189 4.16919 17.9506 4.18757 18.0063 4.17863C18.0962 4.16213 18.7561 4.22969 18.5246 4.33607C18.342 4.41657 18.0775 4.50807 17.9079 4.35401C17.8627 4.31513 17.633 4.22426 17.6314 4.21319C17.6424 4.25926 17.6239 4.18213 17.6314 4.21319ZM23.6775 7.49801C23.7572 7.49801 23.9423 7.79401 23.9135 7.84295C23.8244 7.98245 23.6751 7.6287 23.5818 7.57351C23.6164 7.55145 23.6509 7.52614 23.6775 7.49801ZM13.3418 3.47269C13.5684 3.30375 13.6192 3.39926 13.8997 3.43013C13.8084 3.51063 13.594 3.52713 13.3418 3.47269C13.594 3.52713 13.4034 3.42569 13.3418 3.47269ZM18.3284 3.27976C18.1629 3.23319 17.9832 3.2255 17.8221 3.16025C18.0184 3.1415 18.2556 3.21319 18.3876 3.25275C18.4333 3.2665 18.3183 3.27626 18.3284 3.27976C18.3431 3.28326 18.1629 3.23319 18.3284 3.27976ZM17.8221 3.16025C17.8061 3.16569 17.7895 3.16682 17.7685 3.16844C17.7895 3.14938 17.8061 3.14825 17.8221 3.16025C17.8154 3.15832 17.8061 3.16582 17.8221 3.16025ZM9.01904 12.23C9.05711 12.2326 9.07598 12.2531 9.08398 12.2863C9.06029 12.3818 8.76686 12.2451 8.73504 12.2057C8.83648 12.1473 8.93061 12.1811 9.01904 12.23ZM11.1242 12.224C10.9698 12.6035 10.5754 11.9583 11.1242 12.224C11.1 12.278 11.0335 12.1767 11.1242 12.224ZM11.7301 14.0715C11.7354 14.0586 11.7452 14.0545 11.7594 14.0537C11.7496 14.0586 11.744 14.0621 11.7301 14.0715ZM11.7839 14.0586C11.7776 14.0566 11.8266 13.9026 11.928 13.8961C12.0432 13.9695 11.8418 14.0649 11.7839 14.0586C11.9125 14.0763 11.7773 14.0566 11.7839 14.0586ZM13.0213 3.39207C12.9161 3.46282 12.7921 3.41626 12.6829 3.45782C12.8349 3.35369 12.9013 3.36119 13.0213 3.39207C13.0023 3.38694 12.9162 3.46282 13.0213 3.39207ZM9.09361 11.0518C9.05423 10.8953 8.99411 10.8934 9.09854 10.7569C9.13954 10.9047 9.13954 10.9908 9.09361 11.0518C9.13954 10.9908 9.07892 10.9898 9.09361 11.0518ZM6.26241 16.4548C6.26016 16.5118 6.23473 16.5348 6.18016 16.5134C6.16141 16.4993 6.15091 16.3075 6.18435 16.2689C6.21141 16.3305 6.2386 16.39 6.26241 16.4548C6.2386 16.39 6.2736 16.4815 6.26241 16.4548ZM12.8095 6.2372C12.9332 6.23463 13.0309 6.27063 13.1372 6.35045C12.9947 6.37782 12.9013 6.32326 12.8095 6.2372ZM23.6276 7.44439L23.6301 7.44582C23.5978 7.43351 23.3852 7.30389 23.4684 7.23589C23.5341 7.19051 23.6198 7.42345 23.6276 7.44439ZM25.8229 8.53414C25.7809 8.49095 25.6946 8.51939 25.6721 8.43395C25.7455 8.4752 25.8283 8.45426 25.8964 8.51026C25.8749 8.53095 25.8445 8.5572 25.8229 8.53414C25.8445 8.5572 25.7809 8.49095 25.8229 8.53414ZM13.2058 3.46469C13.1844 3.43463 13.1493 3.45588 13.126 3.42563C13.1862 3.36069 13.2679 3.38257 13.3417 3.36257C13.3383 3.37125 13.2525 3.53094 13.2058 3.46469C13.2164 3.48663 13.1844 3.43482 13.2058 3.46469ZM12.8391 3.54519C12.7434 3.61913 12.6429 3.68919 12.5099 3.67813C12.5992 3.58251 12.7224 3.57051 12.8391 3.54519ZM12.806 6.77882C12.8326 6.78632 12.8599 6.77707 12.9015 6.77357C12.7747 6.93051 12.6241 6.71213 12.6562 6.70351C12.6327 6.70907 12.7959 6.77707 12.806 6.77882C12.7549 6.77113 12.8324 6.78632 12.806 6.77882ZM12.8599 3.60776C12.9496 3.53701 13.0546 3.52326 13.1648 3.53094C13.0706 3.58919 12.9729 3.61926 12.8599 3.60776ZM23.0813 7.80939C22.9796 7.79564 23.2762 7.70045 23.1704 7.83976C23.1375 7.83482 23.1092 7.82651 23.0813 7.80939C23.1162 7.81432 23.0679 7.80745 23.0813 7.80939ZM26.3464 8.55626C26.2856 8.52601 26.2594 8.48426 26.2781 8.41132C26.3256 8.44982 26.3514 8.48982 26.3464 8.55626ZM13.0837 4.08182C13.1206 4.01701 13.1612 3.99976 13.2898 4.00057C13.2263 4.07382 13.157 4.08457 13.0837 4.08182ZM12.1415 4.52057C12.0664 4.56007 12.01 4.59144 11.9314 4.58476C11.9866 4.52057 12.0515 4.52326 12.1415 4.52057ZM19.9802 5.05944C19.9659 5.08794 19.9788 5.10682 20.0028 5.12838C19.9773 5.11638 19.8856 5.00232 19.9581 4.98694C19.9878 4.99944 19.9998 5.02438 19.9802 5.05944C19.9901 5.04344 19.966 5.08794 19.9802 5.05944ZM8.16673 11.459C8.16211 11.5026 8.13986 11.5247 8.09986 11.5238C8.0781 11.4865 8.14486 11.3786 8.16673 11.459C8.16129 11.4414 8.17298 11.4852 8.16673 11.459ZM12.5655 25.0246C12.5992 25.0387 12.618 25.0646 12.6229 25.1012C12.6229 25.2166 12.417 25.0404 12.5655 25.0246C12.5319 25.0292 12.585 25.0222 12.5655 25.0246ZM12.2681 4.58726C12.2437 4.62551 12.209 4.64551 12.1543 4.66244C12.1826 4.60201 12.2215 4.59226 12.2681 4.58726ZM6.35923 16.4341C6.34835 16.5652 6.32066 16.3075 6.35923 16.4341C6.35841 16.4521 6.3536 16.4214 6.35923 16.4341ZM13.1396 4.80694C13.1448 4.80438 13.1519 4.80869 13.1562 4.81001C13.1396 4.81851 13.1112 4.81851 13.1396 4.80694ZM12.5559 3.55944C12.5419 3.56426 12.5247 3.56469 12.5127 3.56619C12.5237 3.55526 12.5401 3.55413 12.5559 3.55944ZM12.505 3.56951C12.4938 3.56951 12.5099 3.56632 12.5127 3.56632C12.51 3.56713 12.5056 3.56713 12.505 3.56951ZM12.4427 3.58663L12.4397 3.58919C12.4384 3.58663 12.4397 3.58663 12.4427 3.58663ZM12.4427 3.58663C12.4579 3.56613 12.4791 3.57032 12.5019 3.56938C12.4855 3.59176 12.4655 3.59463 12.4427 3.58663ZM12.8576 3.60776H12.8599C12.8586 3.60826 12.8576 3.61001 12.8576 3.60776ZM12.8576 3.60826C12.8539 3.63276 12.8349 3.63032 12.8174 3.63032C12.826 3.60826 12.8391 3.60713 12.8576 3.60826ZM8.04979 16.9929C8.02161 16.9711 8.06886 17.0106 8.04979 16.9929C8.03811 16.9852 8.06486 17.0061 8.04979 16.9929ZM22.0238 4.63351C22.1012 4.65626 22.0268 4.65207 22.0238 4.63351C22.0238 4.63351 22.0258 4.64919 22.0238 4.63351ZM20.0033 5.13001C20.0028 5.13001 20.0028 5.12857 20.0028 5.12857C20.0098 5.13001 20.0124 5.13451 20.0098 5.14601C20.0093 5.13944 20.0073 5.13432 20.0033 5.13001C20.0073 5.13432 20.0028 5.13001 20.0033 5.13001ZM12.8133 3.63013C12.8164 3.63013 12.8164 3.63013 12.8173 3.63013C12.8173 3.63157 12.8164 3.63157 12.8133 3.63107C12.8133 3.63113 12.8133 3.63113 12.8133 3.63013ZM12.79 3.63451C12.7961 3.63176 12.806 3.63176 12.8135 3.63113C12.8039 3.64826 12.7929 3.65013 12.79 3.63451C12.7914 3.63669 12.7959 3.63176 12.79 3.63451ZM24.6941 7.67195L24.6961 7.67357L24.6941 7.67195ZM14.3221 16.0971C14.2804 16.0638 14.3525 16.0721 14.3221 16.0971C14.3176 16.0943 14.3321 16.0878 14.3221 16.0971ZM20.5346 28.2352C20.5313 28.2385 20.5301 28.2385 20.5266 28.2385C20.5283 28.2326 20.53 28.2278 20.5346 28.2305C20.5346 28.2305 20.5346 28.2345 20.5346 28.2352ZM20.5266 28.2393C20.5266 28.2385 20.5241 28.2385 20.5266 28.2385V28.2393ZM10.0884 6.84807C10.094 6.84551 10.2155 6.83113 10.1729 6.87957C10.1255 6.90357 10.0986 6.89289 10.0884 6.84807C10.0892 6.87351 10.1015 6.84551 10.0884 6.84807ZM9.32498 5.78582C9.29154 5.76232 9.29842 5.73832 9.34898 5.71332C9.38886 5.72982 9.38211 5.75432 9.32498 5.78582C9.35205 5.7772 9.30786 5.78376 9.32498 5.78582Z" fill="#0494FB"/>
<path d="M16.0004 29.706C8.44444 29.706 2.29736 23.5589 2.29736 16.0028C2.29736 8.44586 8.44444 2.29797 16.0004 2.29797C23.5568 2.29797 29.704 8.4458 29.704 16.0028C29.704 23.5589 23.5566 29.706 16.0004 29.706ZM16.0004 3.57766C9.15006 3.57766 3.57705 9.15161 3.57705 16.0028C3.57705 22.8531 9.15 28.4262 16.0004 28.4262C22.8509 28.4262 28.4242 22.8531 28.4242 16.0028C28.4242 9.15155 22.8509 3.57766 16.0004 3.57766Z" fill="black"/>
<path d="M2.42732 9.45515C2.19244 9.05771 1.97019 8.66377 1.7675 8.28408L2.89663 7.68133C3.09025 8.04452 3.30338 8.42196 3.52882 8.80309L2.42732 9.45515ZM1.16313 7.07496C0.961689 6.63977 0.783626 6.21639 0.634188 5.81621L1.83357 5.36914C1.971 5.73827 2.13644 6.13121 2.32444 6.53664L1.16313 7.07496ZM0.219313 4.48952C0.0927501 3.97301 0.0215625 3.49176 0.0078125 3.05833L1.28688 3.0177C1.29775 3.36233 1.35681 3.75533 1.46206 4.1852L0.219313 4.48952Z" fill="black"/>
<path d="M1.44554 2.012L0.279785 1.484C0.402848 1.21313 0.567473 0.972815 0.769723 0.770752L1.67454 1.67557C1.58041 1.76975 1.50554 1.88 1.44554 2.012Z" fill="black"/>
<path d="M28.944 31.9982C28.5106 31.9847 28.0288 31.9135 27.5123 31.7868L27.8171 30.5439C28.2472 30.6495 28.6399 30.7084 28.9845 30.7193L28.944 31.9982ZM26.1856 31.3713C25.7859 31.2219 25.3623 31.0439 24.9269 30.8414L25.4658 29.6805C25.8714 29.869 26.2641 30.0345 26.6329 30.1719L26.1856 31.3713ZM23.7178 30.2366C23.3399 30.0345 22.9456 29.8123 22.5466 29.5757L23.1989 28.4749C23.582 28.7016 23.9593 28.9145 24.3207 29.1072L23.7178 30.2366Z" fill="black"/>
<path d="M30.5189 31.7254L29.9895 30.5603C30.122 30.5001 30.2324 30.4251 30.3266 30.3306L31.2314 31.2354C31.0299 31.4374 30.79 31.6026 30.5189 31.7254Z" fill="black"/>
<path d="M21.5739 4.55606L20.865 3.49044C23.8002 1.53825 29.0495 -1.41132 31.2317 0.770744L30.3269 1.67556C29.5118 0.860682 26.7306 1.12612 21.5739 4.55606Z" fill="black"/>
<path d="M0.769693 31.2355C-1.41144 29.0544 1.53751 23.8027 3.48951 20.8666L4.55526 21.5749C1.12563 26.734 0.859881 29.5158 1.67463 30.3307L0.769693 31.2355Z" fill="black"/>
<path d="M30.5573 2.01355C30.4971 1.88105 30.4221 1.77048 30.3279 1.67642L31.2325 0.771606C31.4349 0.973857 31.5996 1.21354 31.7226 1.48473L30.5573 2.01355Z" fill="black"/>
<path d="M2.99104 31.9993L2.96704 30.7201C3.29629 30.7139 3.67135 30.6627 4.08242 30.5673L4.37092 31.8141C3.87342 31.9295 3.4091 31.9918 2.99104 31.9993ZM5.65155 31.4304L5.2183 30.2264C5.57317 30.0987 5.95061 29.9446 6.34055 29.7693L6.86648 30.9361C6.44642 31.1253 6.03742 31.2916 5.65155 31.4304ZM8.03311 30.368L7.44224 29.2326C7.79117 29.0512 8.15455 28.8509 8.52305 28.6379L9.16386 29.7457C8.77905 29.9683 8.39855 30.1776 8.03311 30.368ZM10.2647 29.081L9.58324 27.9976C9.92468 27.783 10.2749 27.5548 10.6245 27.3196L11.3389 28.3819C10.9782 28.6241 10.6168 28.8595 10.2647 29.081ZM12.3902 27.653L11.6474 26.6109C11.9794 26.3743 12.3149 26.1283 12.6537 25.8744L13.4216 26.8981C13.0746 27.1587 12.7307 27.4102 12.3902 27.653ZM14.4341 26.1204L13.6432 25.1144C13.966 24.8608 14.2903 24.6 14.6167 24.3323L15.4285 25.3219C15.0952 25.5953 14.7632 25.8616 14.4341 26.1204ZM16.4063 24.5036L15.5754 23.5304C15.8886 23.263 16.2032 22.9893 16.5189 22.7098L17.3674 23.6678C17.0461 23.9524 16.7254 24.2313 16.4063 24.5036ZM18.3127 22.8149L17.4474 21.872C17.7518 21.5926 18.0566 21.308 18.3615 21.0179L19.2433 21.9456C18.9328 22.2408 18.6226 22.5304 18.3127 22.8149ZM20.1588 21.0604L19.261 20.1486C19.409 20.0027 19.5573 19.8558 19.7053 19.7078C19.8533 19.5598 20.0004 19.4118 20.1459 19.2633L21.0583 20.1606C20.9101 20.3114 20.7606 20.4623 20.6096 20.6131C20.4594 20.7633 20.3093 20.9123 20.1588 21.0604ZM21.9431 19.2457L21.0157 18.3637C21.3058 18.0589 21.5903 17.7539 21.8698 17.4496L22.8126 18.3154C22.528 18.6251 22.2381 18.9355 21.9431 19.2457ZM23.6658 17.3697L22.7076 16.5214C22.9869 16.2057 23.2604 15.8912 23.5279 15.5777L24.5018 16.4085C24.2293 16.7278 23.9503 17.0483 23.6658 17.3697ZM25.3196 15.4309L24.3301 14.6191C24.5978 14.2925 24.8586 13.9679 25.1121 13.6454L26.1183 14.4363C25.8594 14.7659 25.5931 15.0974 25.3196 15.4309ZM26.896 13.4243L25.8726 12.656C26.1269 12.3176 26.372 11.9821 26.6085 11.6502L27.6508 12.3928C27.4083 12.7329 27.1565 13.0769 26.896 13.4243ZM28.3794 11.3407L27.317 10.6275C27.5548 10.2735 27.7828 9.92317 27.995 9.58573L29.0783 10.267C28.8593 10.6152 28.624 10.9766 28.3794 11.3407ZM29.7428 9.16655L28.6354 8.52511C28.8468 8.15998 29.0471 7.79648 29.2301 7.44461L30.3655 8.03579C30.1733 8.4043 29.9637 8.78473 29.7428 9.16655ZM30.9335 6.86829L29.7666 6.34285C29.9421 5.95292 30.0962 5.57535 30.224 5.22029L31.4278 5.65373C31.2888 6.03998 31.1228 6.44873 30.9335 6.86829ZM31.8113 4.37354L30.5645 4.0846C30.6597 3.67372 30.7109 3.29866 30.7168 2.96985L31.9967 2.99335C31.989 3.41129 31.9265 3.8756 31.8113 4.37354Z" fill="black"/>
<path d="M1.48168 31.7254C1.21049 31.6024 0.970805 31.4374 0.768555 31.2354L1.67337 30.3306C1.76774 30.4248 1.87799 30.5002 2.01049 30.5602L1.48168 31.7254Z" fill="black"/>
<path d="M31.2326 31.2352L30.328 30.3304C32.0798 28.5782 28.1482 20.7419 19.7052 12.2987C15.7974 8.39121 11.7029 5.14964 8.17626 3.1712C5.01575 1.39807 2.52425 0.825757 1.67337 1.67601L0.768555 0.771195C2.11931 -0.579995 4.89737 -0.135494 8.80251 2.05488C12.4283 4.08895 16.6217 7.40577 20.6099 11.3938C27.994 18.7778 34.2264 28.2414 31.2326 31.2352Z" fill="black"/>
</svg>
