<svg width="32" height="32" viewBox="0 0 32 32" fill="none" xmlns="http://www.w3.org/2000/svg">
<path d="M29.5272 29.5272H2.47282C1.366 29.5272 0.46875 28.63 0.46875 27.5231V9.48685C0.46875 8.38004 1.366 7.48279 2.47282 7.48279H29.5273C30.6341 7.48279 31.5314 8.38004 31.5314 9.48685V27.5232C31.5313 28.63 30.6341 29.5272 29.5272 29.5272Z" fill="#CD916E"/>
<path d="M29.0262 18.9728H2.97382C1.59032 18.9728 0.46875 17.8513 0.46875 16.4678V26.0202C0.46875 27.1269 1.366 28.0242 2.47282 28.0242H29.5273C30.6341 28.0242 31.5314 27.127 31.5314 26.0202V16.4678C31.5313 17.8513 30.4098 18.9728 29.0262 18.9728Z" fill="#B67F5F"/>
<path d="M2.97382 22.0121H29.0263C30.0074 22.0121 30.8943 21.6057 31.5314 20.9542V18.004C31.5314 19.3875 30.4098 20.5091 29.0263 20.5091H2.97382C1.59032 20.509 0.46875 19.3875 0.46875 18.004V20.9542C1.10588 21.6057 1.99275 22.0121 2.97382 22.0121Z" fill="#A06E50"/>
<path d="M4.97754 19.507V22.012C4.97754 22.5654 5.42617 23.014 5.97954 23.014C6.53292 23.014 6.98154 22.5654 6.98154 22.012V19.507H4.97754Z" fill="#F7D291"/>
<path d="M17.5032 18.505H14.4971C13.9437 18.505 13.4951 18.0564 13.4951 17.503C13.4951 16.9496 13.9437 16.501 14.4971 16.501H17.5032C18.0566 16.501 18.5052 16.9496 18.5052 17.503C18.5053 18.0564 18.0566 18.505 17.5032 18.505Z" fill="#F7D291"/>
<path d="M4.97754 21.8006C5.28479 21.9351 5.62273 22.0121 5.97954 22.0121C6.33635 22.0121 6.67435 21.9351 6.98154 21.8006V19.5071H4.97754V21.8006Z" fill="#F0C382"/>
<path d="M5.97969 21.01C6.80985 21.01 7.48282 20.3371 7.48282 19.5069C7.48282 18.6768 6.80985 18.0038 5.97969 18.0038C5.14954 18.0038 4.47656 18.6768 4.47656 19.5069C4.47656 20.3371 5.14954 21.01 5.97969 21.01Z" fill="#FFE1A0"/>
<path d="M25.0186 19.5071V22.0121C25.0186 22.5655 25.4672 23.0142 26.0206 23.0142C26.5739 23.0142 27.0226 22.5655 27.0226 22.0121V19.5071H25.0186Z" fill="#F7D291"/>
<path d="M25.0186 21.8006C25.3258 21.9351 25.6637 22.0121 26.0206 22.0121C26.3774 22.0121 26.7154 21.9351 27.0226 21.8006V19.5071H25.0186V21.8006Z" fill="#F0C382"/>
<path d="M26.0197 21.01C26.8499 21.01 27.5229 20.3371 27.5229 19.5069C27.5229 18.6768 26.8499 18.0038 26.0197 18.0038C25.1896 18.0038 24.5166 18.6768 24.5166 19.5069C24.5166 20.3371 25.1896 21.01 26.0197 21.01Z" fill="#FFE1A0"/>
<path d="M29.5272 28.0242H2.47282C1.366 28.0242 0.46875 27.127 0.46875 26.0201V27.5231C0.46875 28.6299 1.366 29.5272 2.47282 29.5272H29.5273C30.6341 29.5272 31.5314 28.63 31.5314 27.5231V26.0201C31.5313 27.127 30.6341 28.0242 29.5272 28.0242Z" fill="#A06E50"/>
<path d="M11.7776 3.18684L11.3906 4.47678H12.2693H19.7303H20.6091L20.2222 3.18684C20.0951 2.76303 19.705 2.47278 19.2625 2.47278H12.7373C12.2949 2.47278 11.9048 2.76303 11.7776 3.18684Z" fill="#A06E50"/>
<path d="M29.5273 7.01404H21.8599L20.6713 3.0521C20.4832 2.42516 19.9171 2.00391 19.2625 2.00391H12.7375C12.0829 2.00391 11.5168 2.42509 11.3287 3.05203L10.1401 7.01398H2.47275C1.10931 7.01404 0 8.12329 0 9.48686V27.5232C0 28.8867 1.10931 29.996 2.47275 29.996H29.5272C30.8907 29.996 32 28.8866 32 27.5232V9.48686C32.0001 8.12329 30.8908 7.01404 29.5273 7.01404ZM11.7395 4.94547H12.493C12.7518 4.94547 12.9617 4.7356 12.9617 4.47672C12.9617 4.21785 12.7518 4.00797 12.493 4.00797H12.0208L12.2267 3.32147C12.2949 3.09416 12.5002 2.94147 12.7375 2.94147H19.2625C19.4999 2.94147 19.7051 3.09416 19.7733 3.32153L19.9792 4.00803H14.4969C14.238 4.00803 14.0282 4.21791 14.0282 4.47679C14.0282 4.73566 14.238 4.94554 14.4969 4.94554H20.2605L20.881 7.0141H11.119L11.7395 4.94547ZM29.5273 29.0585H2.47275C1.62625 29.0585 0.937502 28.3697 0.937502 27.5231V20.1683C1.47007 20.6696 2.18638 20.9778 2.97382 20.9778H4.50907V22.012C4.50907 22.823 5.16889 23.4828 5.97982 23.4828C6.79076 23.4828 7.45058 22.8229 7.45058 22.012V20.9778H21.511C21.7699 20.9778 21.9798 20.7679 21.9798 20.509C21.9798 20.2501 21.7699 20.0403 21.511 20.0403H7.87777C7.92552 19.8705 7.95164 19.6918 7.95164 19.507C7.95164 18.4197 7.06714 17.5352 5.97989 17.5352C4.89264 17.5352 4.00813 18.4197 4.00813 19.507C4.00813 19.6918 4.03426 19.8705 4.08201 20.0403H2.97388C1.851 20.0403 0.937502 19.1267 0.937502 18.0039V9.48686C0.937502 8.64029 1.62625 7.95154 2.47275 7.95154H5.51107V15.9999C5.51107 16.2588 5.72095 16.4687 5.97982 16.4687C6.2387 16.4687 6.44858 16.2588 6.44858 15.9999V7.95154H25.5515V15.9999C25.5515 16.2588 25.7614 16.4687 26.0202 16.4687C26.2791 16.4687 26.489 16.2588 26.489 15.9999V7.95154H29.5273C30.3739 7.95154 31.0626 8.64029 31.0626 9.48686V18.004C31.0626 19.1268 30.1491 20.0403 29.0262 20.0403H27.9181C27.9659 19.8706 27.992 19.6919 27.992 19.5071C27.992 18.4198 27.1075 17.5353 26.0202 17.5353C24.933 17.5353 24.0485 18.4198 24.0485 19.5071C24.0485 19.6919 24.0746 19.8706 24.1224 20.0403H23.5152C23.2564 20.0403 23.0465 20.2502 23.0465 20.5091C23.0465 20.7679 23.2564 20.9778 23.5152 20.9778H24.5495V22.0121C24.5495 22.8231 25.2093 23.4828 26.0202 23.4828C26.8312 23.4828 27.491 22.823 27.491 22.0121V20.9778H29.0262C29.8136 20.9778 30.53 20.6696 31.0626 20.1683V27.5232C31.0626 28.3697 30.3738 29.0585 29.5273 29.0585ZM5.44657 21.4049C5.61632 21.4526 5.79501 21.4788 5.97982 21.4788C6.16464 21.4788 6.34333 21.4526 6.51308 21.4049V22.012C6.51308 22.3061 6.27383 22.5453 5.97982 22.5453C5.68582 22.5453 5.44657 22.306 5.44657 22.012V21.4049ZM5.97982 20.5413C5.40951 20.5413 4.94557 20.0773 4.94557 19.507C4.94557 18.9367 5.40951 18.4727 5.97982 18.4727C6.55014 18.4727 7.01408 18.9367 7.01408 19.507C7.01408 20.0773 6.55014 20.5413 5.97982 20.5413ZM26.0202 20.5413C25.4499 20.5413 24.986 20.0773 24.986 19.507C24.986 18.9367 25.4499 18.4727 26.0202 18.4727C26.5906 18.4727 27.0545 18.9367 27.0545 19.507C27.0545 20.0773 26.5906 20.5413 26.0202 20.5413ZM25.487 21.4049C25.6567 21.4526 25.8354 21.4788 26.0202 21.4788C26.2051 21.4788 26.3837 21.4526 26.5535 21.4049V22.012C26.5535 22.3061 26.3142 22.5453 26.0202 22.5453C25.7262 22.5453 25.487 22.306 25.487 22.012V21.4049Z" fill="black"/>
<path d="M17.5032 16.0322H14.4971C13.6861 16.0322 13.0264 16.692 13.0264 17.503C13.0264 18.3139 13.6862 18.9737 14.4971 18.9737H17.5032C18.3142 18.9737 18.9739 18.3139 18.9739 17.503C18.9739 16.692 18.3142 16.0322 17.5032 16.0322ZM17.5032 18.0363H14.4971C14.2031 18.0363 13.9639 17.797 13.9639 17.503C13.9639 17.209 14.2031 16.9698 14.4971 16.9698H17.5032C17.7973 16.9698 18.0364 17.209 18.0364 17.503C18.0364 17.797 17.7973 18.0363 17.5032 18.0363Z" fill="black"/>
</svg>
