<svg width="32" height="32" viewBox="0 0 32 32" fill="none" xmlns="http://www.w3.org/2000/svg">
<path d="M6.43185 11.8122V9.06522H5.90154C5.77479 9.06522 5.65348 9.04303 5.54004 9.00403C5.01423 9.2404 4.61035 9.84965 4.61035 10.4511C4.61035 11.3113 5.47004 12.0168 6.43429 11.911C6.43341 11.8781 6.43185 11.8452 6.43185 11.8122Z" fill="#FFB1A0"/>
<path d="M6.43185 11.6866C5.97954 11.423 5.67285 10.9647 5.67285 10.451C5.67285 9.91659 5.99198 9.37678 6.43185 9.09703V9.06509H5.90154C5.77479 9.06509 5.65348 9.04291 5.54004 9.00391C5.01423 9.24028 4.61035 9.84953 4.61035 10.451C4.61035 11.3112 5.47004 12.0167 6.43429 11.9109C6.43341 11.878 6.43185 11.8452 6.43185 11.8121V11.6866Z" fill="#FFA68E"/>
<path d="M14.5632 10.6695H15.7192C15.7215 10.6369 15.7231 10.4791 15.7231 10.446C15.7231 9.79211 15.2973 9.11642 14.6758 8.9198C14.5559 9.01055 14.4072 9.06511 14.2462 9.06511C14.1495 9.06511 13.9927 9.05474 13.9016 9.03542V11.5185C13.9016 11.1877 14.2324 10.6695 14.5632 10.6695V10.6695Z" fill="#FFB1A0"/>
<path d="M15.0323 9.09886C14.9229 9.02211 14.8039 8.96042 14.6759 8.91992C14.5559 9.01067 14.4073 9.06524 14.2462 9.06524C14.1495 9.06524 13.9927 9.05486 13.9016 9.03555V11.5187C13.9016 11.1878 14.2324 10.6695 14.5632 10.6695H15.0322V9.09886H15.0323Z" fill="#FFA68E"/>
<path d="M15.8913 24.6833C15.4859 24.6833 15.1571 24.3546 15.1571 23.9491V17.5238C14.9195 17.4318 14.5583 17.3403 14.331 17.2523C12.2506 19.3327 12.3574 19.2389 12.1297 19.4145C10.8543 20.3984 9.03446 20.2846 7.88984 19.1399L5.99404 17.2441L2.52155 18.6003C1.64387 18.9615 0.46875 20.0979 0.46875 21.7843V28.4192C0.46875 28.797 0.774999 29.1032 1.15281 29.1032H19.1805C19.5583 29.1032 19.8645 28.797 19.8645 28.4192C19.8645 28.2838 19.8645 26.3197 19.8645 24.6833H15.8913Z" fill="#695D67"/>
<path d="M2.14775 21.0903C2.14775 19.6143 3.04788 18.5597 3.86094 18.0773L2.52163 18.6003C1.64388 18.9616 0.46875 20.098 0.46875 21.7844V28.4193C0.46875 28.7971 0.775 29.1033 1.15281 29.1033H2.14775C2.14775 26.2222 2.14775 21.5343 2.14775 21.0903V21.0903Z" fill="#544E55"/>
<path d="M10.7998 18.0599L12.3115 16.3716C12.2826 16.3178 12.2658 16.2572 12.2656 16.1933L12.2646 14.7582C10.9303 15.6313 9.24209 15.5134 8.06572 14.7527V16.1911C8.06572 16.2671 8.04772 16.3277 8.01953 16.3769L9.52584 18.0599C9.55941 18.0931 9.58134 18.1331 9.59416 18.1753H10.7315C10.7443 18.1331 10.7663 18.0931 10.7998 18.0599Z" fill="#FFB1A0"/>
<path d="M10.1068 18.1097V15.3682C9.37059 15.3529 8.65409 15.1332 8.06572 14.7528V16.1912C8.06572 16.2672 8.04772 16.3278 8.01953 16.377L9.52584 18.0601C9.55941 18.0932 9.58134 18.1332 9.59416 18.1754H10.1048C10.106 18.1539 10.1068 18.1322 10.1068 18.1097Z" fill="#FFA68E"/>
<path d="M15.0322 12.4586V24.0741C15.0322 24.4796 15.3609 24.8083 15.7664 24.8083H29.7291C30.1345 24.8083 30.4632 24.4796 30.4632 24.0741V12.4586H15.0322Z" fill="#DFEBFA"/>
<path d="M18.5322 24.0741V12.4586H15.0322V24.0741C15.0322 24.4796 15.3609 24.8083 15.7664 24.8083H19.2664C18.8609 24.8083 18.5322 24.4796 18.5322 24.0741Z" fill="#B1DBFC"/>
<path d="M22.7476 27.1061C22.1961 27.1061 21.749 27.5532 21.749 28.1047C21.749 28.6562 22.1961 29.1033 22.7476 29.1033C23.2991 29.1033 23.7463 28.6562 23.7463 28.1047C23.7463 27.5531 23.2992 27.1061 22.7476 27.1061Z" fill="#DFEBFA"/>
<path d="M22.6761 28.1047C22.6761 27.7206 22.8933 27.3876 23.2112 27.2206C23.0726 27.1478 22.9151 27.1061 22.7476 27.1061C22.1961 27.1061 21.749 27.5531 21.749 28.1047C21.749 28.6562 22.1961 29.1033 22.7476 29.1033C22.9151 29.1033 23.0726 29.0616 23.2112 28.9888C22.8933 28.8217 22.6761 28.4888 22.6761 28.1047Z" fill="#B1DBFC"/>
<path d="M30.932 10.5444H14.563C14.2321 10.5444 13.9639 10.8127 13.9639 11.1436V12.0471C13.9639 12.3779 14.2321 12.6462 14.563 12.6462H30.932C31.2629 12.6462 31.5312 12.3779 31.5312 12.0471V11.1436C31.5311 10.8127 31.2629 10.5444 30.932 10.5444V10.5444Z" fill="#8479C2"/>
<path d="M18.3701 12.0471V11.1436C18.3701 10.8127 18.6384 10.5444 18.9692 10.5444H14.563C14.2321 10.5444 13.9639 10.8127 13.9639 11.1436V12.0471C13.9639 12.3779 14.2321 12.6462 14.563 12.6462H18.9692C18.6384 12.6462 18.3701 12.3779 18.3701 12.0471Z" fill="#6E60B8"/>
<path d="M18.8167 18.6646H17.4721C17.3122 18.6646 17.1826 18.7941 17.1826 18.954V21.1492C17.1826 21.2746 17.2842 21.3762 17.4096 21.3762H19.1062V18.9541C19.1061 18.7941 18.9766 18.6646 18.8167 18.6646Z" fill="#43CB8E"/>
<path d="M18.1771 18.954C18.1771 18.7942 18.3067 18.6646 18.4666 18.6646H17.4721C17.3122 18.6646 17.1826 18.7941 17.1826 18.954V21.1492C17.1826 21.2746 17.2842 21.3762 17.4096 21.3762H18.1771V18.954Z" fill="#00BA66"/>
<path d="M20.6778 17.5056H19.3331C19.1733 17.5056 19.0437 17.6352 19.0437 17.7951V21.3762H20.9672V17.7951C20.9673 17.6352 20.8377 17.5056 20.6778 17.5056V17.5056Z" fill="#FFE181"/>
<path d="M20.3276 17.5056H19.3331C19.1733 17.5056 19.0437 17.6352 19.0437 17.795V21.3761H20.0382V17.795C20.0383 17.6352 20.1678 17.5056 20.3276 17.5056Z" fill="#FEC458"/>
<path d="M22.4732 16.3032H21.191C21.0312 16.3032 20.9016 16.4328 20.9016 16.5927V21.3762H22.5357C22.661 21.3762 22.7627 21.2746 22.7627 21.1492V16.5927C22.7626 16.4328 22.633 16.3032 22.4732 16.3032Z" fill="#FF7F87"/>
<path d="M22.1855 16.3032H21.191C21.0312 16.3032 20.9016 16.4328 20.9016 16.5927V21.3762H21.8961V16.5927C21.8961 16.4328 22.0257 16.3032 22.1855 16.3032V16.3032Z" fill="#FF656F"/>
<path d="M10.7315 17.9878H9.59416C9.62266 18.0814 9.47641 18.187 9.40259 18.2613L8.19922 19.5987C9.35347 20.4922 10.9745 20.4934 12.1299 19.6021L10.9231 18.2613C10.8493 18.187 10.703 18.0814 10.7315 17.9878V17.9878Z" fill="#FEC458"/>
<path d="M12.5081 16.5463C12.4218 16.513 12.3535 16.4498 12.3114 16.3716L10.7998 17.8725C10.6918 17.9793 10.691 18.1535 10.798 18.2613L12.1298 19.6021C12.2387 19.5181 12.3437 19.4273 12.4435 19.3275L14.4663 17.3047C13.4682 16.9181 12.6099 16.5857 12.5081 16.5463V16.5463Z" fill="#FFE181"/>
<path d="M8.01956 16.3768C7.98975 16.4288 7.9485 16.468 7.90406 16.4982L5.85938 17.2968L7.89006 19.3275C7.98844 19.4258 8.09206 19.5156 8.19925 19.5986L9.52763 18.2612C9.63469 18.1535 9.63388 17.9792 9.52588 17.8724L8.01956 16.3768Z" fill="#FFE181"/>
<path d="M12.8808 7.57502C12.8808 7.50189 12.7829 7.47664 12.7484 7.5412C12.3033 8.37358 11.4263 8.94014 10.4164 8.94014H8.73804V11.8026C8.73804 13.3806 9.71479 14.8493 11.2912 15.3985C12.8351 14.9368 13.9639 13.5041 13.9639 11.8121V8.91045C13.3473 8.77958 12.8808 8.2292 12.8808 7.57502V7.57502Z" fill="#FFCEBE"/>
<path d="M8.7947 11.8121V8.94006H6.36914V11.8121C6.36914 13.7684 7.90202 15.5553 10.2207 15.5553C10.6307 15.5553 11.0251 15.4881 11.3946 15.3657C9.79226 14.8569 8.7947 13.3899 8.7947 11.8121V11.8121Z" fill="#FFB1A0"/>
<path d="M13.7206 4.20041C13.363 4.22791 13.0348 4.00304 12.966 3.65098C12.85 3.0581 12.5565 2.46973 11.4099 2.46973H7.43171C5.97171 2.46973 4.78809 3.65329 4.78809 5.11335V8.01466C4.78809 8.62941 5.28646 9.12779 5.90121 9.12779H10.4163C11.4261 9.12779 12.3032 8.56123 12.7483 7.72885C12.7828 7.66435 12.8807 7.68954 12.8807 7.76266C12.8807 8.51348 13.495 9.12779 14.2458 9.12779C14.6394 9.12779 14.9614 8.80579 14.9614 8.41223C14.9614 7.31235 14.9614 6.50898 14.9614 5.3846C14.9614 4.67129 14.3391 4.15285 13.7206 4.20041V4.20041Z" fill="#695D67"/>
<path d="M6.97596 8.07504V5.09466C6.97596 3.83585 7.83258 2.77754 8.99458 2.46973H7.43196C5.97196 2.46973 4.78833 3.65329 4.78833 5.11335V8.01466C4.78833 8.62941 5.28671 9.12779 5.90146 9.12779H7.67258C7.26314 8.95373 6.97596 8.54792 6.97596 8.07504V8.07504Z" fill="#544E55"/>
<path d="M28.0483 18.37H25.0483C24.7894 18.37 24.5796 18.5799 24.5796 18.8387C24.5796 19.0976 24.7894 19.3075 25.0483 19.3075H28.0483C28.3073 19.3075 28.5171 19.0976 28.5171 18.8387C28.5171 18.5799 28.3073 18.37 28.0483 18.37Z" fill="black"/>
<path d="M28.0483 20.2968H25.0483C24.7894 20.2968 24.5796 20.5066 24.5796 20.7655C24.5796 21.0244 24.7894 21.2343 25.0483 21.2343H28.0483C28.3073 21.2343 28.5171 21.0244 28.5171 20.7655C28.5171 20.5066 28.3073 20.2968 28.0483 20.2968Z" fill="black"/>
<path d="M28.0483 16.4431H25.0483C24.7894 16.4431 24.5796 16.653 24.5796 16.9119C24.5796 17.1707 24.7894 17.3806 25.0483 17.3806H28.0483C28.3073 17.3806 28.5171 17.1707 28.5171 16.9119C28.5171 16.653 28.3073 16.4431 28.0483 16.4431Z" fill="black"/>
<path d="M21.1911 15.8335C20.773 15.8335 20.4329 16.1736 20.4329 16.5917V17.0359H19.333C18.915 17.0359 18.5749 17.376 18.5749 17.794V18.1949H17.472C17.054 18.1949 16.7139 18.535 16.7139 18.953V21.1482C16.7139 21.5319 17.0259 21.8439 17.4095 21.8439H22.5358C22.9194 21.8439 23.2314 21.5319 23.2314 21.1482V16.5917C23.2314 16.1736 22.8914 15.8335 22.4733 15.8335H21.1911ZM18.5749 20.9064H17.6514V19.1324H18.5749V20.9064ZM20.4329 20.9064H19.5124C19.5124 20.336 19.5124 18.5549 19.5124 17.9734H20.4329V20.9064ZM22.2939 20.9064H21.3734C21.3734 17.8746 21.3703 16.9107 21.3703 16.771H22.2938V20.9064H22.2939Z" fill="black"/>
<path d="M1.15281 29.5711H9.0729C9.33184 29.5711 9.54165 29.3612 9.54165 29.1023C9.54165 28.8435 9.33184 28.6336 9.0729 28.6336H4.25636V22.3363C4.25636 22.0774 4.04655 21.8675 3.78761 21.8675C3.52867 21.8675 3.31886 22.0774 3.31886 22.3363V28.6336H1.15281C1.03412 28.6336 0.937496 28.537 0.937496 28.4183V21.7835C0.937496 20.3001 1.98799 19.3277 2.69643 19.0344L5.74441 17.8441L7.55847 19.6581C8.22359 20.3234 9.15103 20.7389 10.1666 20.7389C11.1457 20.7388 12.0821 20.3506 12.7749 19.6581L14.5634 17.8696V24.0734C14.5634 24.7367 15.103 25.2763 15.7662 25.2763H16.0769V28.6337H11.2604C11.0015 28.6337 10.7916 28.8436 10.7916 29.1025C10.7916 29.3613 11.0015 29.5712 11.2604 29.5712H19.1805C19.8162 29.5712 20.3333 29.0541 20.3333 28.4184V25.2763H22.2789V26.7137C21.6991 26.9098 21.2803 27.4587 21.2803 28.1038C21.2803 28.913 21.9385 29.5712 22.7477 29.5712C23.5568 29.5712 24.215 28.913 24.215 28.1038C24.215 27.4587 23.7963 26.9098 23.2164 26.7137V25.2763H29.729C30.3923 25.2763 30.9319 24.7367 30.9319 24.0734V19.9326C30.9319 19.6737 30.7221 19.4639 30.4631 19.4639C30.2042 19.4639 29.9944 19.6737 29.9944 19.9326V24.0734C29.9944 24.2197 29.8753 24.3388 29.729 24.3388H19.8645H15.7663C15.62 24.3388 15.5009 24.2197 15.5009 24.0734C15.5009 23.778 15.5009 13.4095 15.5009 13.1141H29.9944V17.7451C29.9944 18.004 30.2042 18.2139 30.4631 18.2139C30.7221 18.2139 30.9319 18.004 30.9319 17.7451V13.1141H30.9322C31.521 13.1141 32 12.6351 32 12.0463V11.1428C32 10.554 31.521 10.075 30.9322 10.075H16.1559C16.0599 9.56385 15.7707 9.10816 15.3599 8.80991C15.4048 8.68516 15.4304 8.55135 15.4304 8.41135V5.38355C15.4304 4.39193 14.5713 3.66399 13.6849 3.73206C13.5746 3.74062 13.4505 3.68412 13.4262 3.55999C13.2209 2.51031 12.5614 2 11.4101 2H7.43197C5.71579 2 4.31961 3.39618 4.31961 5.11236V8.01366C4.31961 8.42016 4.47386 8.79129 4.72673 9.07179C4.36229 9.44116 4.14148 9.93828 4.14148 10.4502C4.14148 11.4058 4.88742 12.2563 5.94041 12.375C6.09104 13.4516 6.66841 14.4921 7.59678 15.1847V16.1141C7.06947 16.3201 2.90943 17.9448 2.35093 18.1629C2.3483 18.1639 2.34568 18.165 2.34305 18.1661C1.21462 18.6305 0 19.9606 0 21.7835V28.4183C0 29.054 0.517123 29.5711 1.15281 29.5711V29.5711ZM22.7477 27.5739C23.0398 27.5739 23.2775 27.8116 23.2775 28.1038C23.2775 28.396 23.0398 28.6337 22.7477 28.6337C22.4555 28.6337 22.2178 28.396 22.2178 28.1038C22.2178 27.8116 22.4555 27.5739 22.7477 27.5739ZM17.0144 25.2762H19.3958V28.4183C19.3958 28.537 19.2992 28.6337 19.1805 28.6337H17.0145V25.2762H17.0144ZM8.94296 19.5139C9.50221 18.9509 9.29909 19.1554 9.86009 18.5906C9.86071 18.59 9.86121 18.5893 9.86177 18.5887C9.90309 18.5468 9.94221 18.4943 9.96615 18.4555H10.3591C10.3843 18.4966 10.4246 18.5496 10.4653 18.5906L11.385 19.5165C10.6168 19.8972 9.7104 19.8962 8.94296 19.5139ZM8.53365 16.226C8.53409 16.2141 8.53434 16.2022 8.53434 16.1901V15.7088C9.50134 16.0947 10.7069 16.1573 11.7963 15.7162L11.7967 16.1937C11.7967 16.2026 11.7969 16.2116 11.7972 16.2205C11.2535 16.7604 11.0181 16.994 10.4904 17.518H9.83509C9.50515 17.1906 8.79896 16.4894 8.53365 16.226V16.226ZM12.1504 18.9567C12.0604 18.8662 11.371 18.1721 11.2674 18.0678L12.3543 16.9886C13.0151 17.2445 12.979 17.2305 13.626 17.4811L12.1504 18.9567ZM14.5634 16.8388L12.7342 16.1304L12.7334 15.1896C13.4386 14.6638 13.9743 13.9228 14.2424 13.0647C14.3437 13.0967 14.4514 13.1141 14.5631 13.1141H14.5634V16.8388ZM30.9322 11.0123C31.004 11.0123 31.0625 11.0708 31.0625 11.1427V12.0461C31.0625 12.118 31.004 12.1765 30.9322 12.1765C30.1445 12.1765 15.3662 12.1765 14.5631 12.1765C14.4913 12.1765 14.4328 12.118 14.4328 12.0461C14.4328 11.531 14.4328 11.6424 14.4328 11.1427C14.4328 11.0708 14.4913 11.0123 14.5631 11.0123C15.5294 11.0123 29.9784 11.0123 30.9322 11.0123ZM14.7061 9.50247C14.9258 9.62447 15.0984 9.83235 15.1876 10.0748H14.5631C14.5206 10.0748 14.4614 10.0792 14.4328 10.0827V9.58066C14.5257 9.56597 14.6313 9.53416 14.7061 9.50247ZM5.90054 11.4187C5.4336 11.3075 5.07898 10.9197 5.07898 10.4501C5.07898 10.1072 5.28598 9.76197 5.59685 9.56578C5.67073 9.58022 5.74635 9.58978 5.82341 9.59353C5.8491 9.59485 5.87479 9.59547 5.90048 9.59553V11.4187H5.90054ZM5.90148 8.65797C5.5541 8.65797 5.2571 8.37473 5.2571 8.0136V5.11236C5.2571 3.91312 6.23273 2.9375 7.43197 2.9375H11.4101C12.2785 2.9375 12.4203 3.30093 12.5061 3.73993C12.6185 4.31455 13.1569 4.71286 13.7568 4.6668C14.104 4.6403 14.4929 4.94424 14.4929 5.38355V8.41116C14.4929 8.54604 14.3764 8.65797 14.2461 8.65797C13.7469 8.65797 13.3497 8.24566 13.3497 7.7616C13.3497 7.20079 12.5971 7.01617 12.3351 7.50673C11.9555 8.21679 11.2203 8.65791 10.4165 8.65791C9.76159 8.65797 6.55747 8.65797 5.90148 8.65797V8.65797ZM6.83803 11.8112V9.59547H10.4165C11.2571 9.59547 12.0613 9.25579 12.6453 8.6556C12.8371 8.99772 13.1358 9.27179 13.4953 9.43385V11.8112C13.4953 13.6378 12.0025 15.0856 10.2208 15.0856C8.17897 15.0856 6.83803 13.4989 6.83803 11.8112ZM7.96084 16.9784C8.67328 17.6858 8.40215 17.4166 9.05809 18.0678C8.58222 18.5469 8.75453 18.3734 8.17903 18.9528L6.69791 17.4717L7.96084 16.9784Z" fill="black"/>
</svg>
