<svg width="32" height="32" viewBox="0 0 32 32" fill="none" xmlns="http://www.w3.org/2000/svg">
<path d="M23.7762 17.0155L23.6112 18.4999L23.5 19.4999H9.5L9.38875 18.4999L9.22375 17.0155C9.07707 15.6945 9.27517 14.3579 9.79875 13.1362C10.2599 12.0594 10.4694 10.8917 10.4112 9.72179L10.3244 7.99179C10.2826 7.15488 10.4114 6.3182 10.7029 5.53258C10.9944 4.74696 11.4425 4.02878 12.0201 3.42167C12.5977 2.81455 13.2926 2.33117 14.0627 2.00087C14.8328 1.67057 15.662 1.50024 16.5 1.50024C17.338 1.50024 18.1672 1.67057 18.9373 2.00087C19.7074 2.33117 20.4023 2.81455 20.9799 3.42167C21.5575 4.02878 22.0056 4.74696 22.2971 5.53258C22.5886 6.3182 22.7174 7.15488 22.6756 7.99179L22.5887 9.72179C22.5306 10.8917 22.7401 12.0594 23.2012 13.1362C23.725 14.3579 23.9231 15.6945 23.7762 17.0155V17.0155Z" fill="#8F4D2E"/>
<path d="M23.7763 17.0156L23.6113 18.5H18.0001V13L19.0001 11V7C18.9995 5.79464 18.6033 4.62281 17.8723 3.66436C17.1414 2.70592 16.1161 2.01385 14.9539 1.69438C15.8929 1.45334 16.8754 1.43623 17.8223 1.64443C18.7691 1.85263 19.6539 2.28032 20.4052 2.89304C21.1565 3.50576 21.7534 4.28639 22.1477 5.17202C22.5421 6.05766 22.723 7.02355 22.6757 7.99187L22.5888 9.72187C22.5307 10.8918 22.7402 12.0595 23.2013 13.1362C23.7251 14.3579 23.9232 15.6945 23.7763 17.0156V17.0156Z" fill="#82462A"/>
<path d="M19.2 17.5C19.1081 17.5 19.017 17.482 18.9321 17.4468C18.8471 17.4117 18.7699 17.3601 18.7049 17.2951C18.6399 17.2301 18.5883 17.1529 18.5532 17.0679C18.518 16.983 18.5 16.8919 18.5 16.8V13.5H14.5V16.8C14.5 16.8919 14.482 16.983 14.4468 17.0679C14.4117 17.1529 14.3601 17.2301 14.2951 17.2951C14.2301 17.3601 14.1529 17.4117 14.0679 17.4468C13.983 17.482 13.8919 17.5 13.8 17.5H13V20.5H20V17.5H19.2Z" fill="#FEC9A3"/>
<path d="M16.8015 16C17.4206 15.9932 18.0192 15.7772 18.5 15.3871V13.5H14.5V15.3869C14.9808 15.7771 15.5794 15.9932 16.1985 16H16.8015Z" fill="#FEB784"/>
<path d="M21 8V10.5C21 11.6935 20.5259 12.8381 19.682 13.682C18.8381 14.5259 17.6935 15 16.5 15C15.3065 15 14.1619 14.5259 13.318 13.682C12.4741 12.8381 12 11.6935 12 10.5V8C12.9831 7.34486 13.7781 6.44431 14.3062 5.3875L14.5 5L14.7837 5.23688C16.0261 6.2721 17.4582 7.05543 19 7.54313C19.653 7.75009 20.3219 7.9029 21 8V8Z" fill="#FEC9A3"/>
<path d="M20.9999 8.00009V10.5001C20.9997 11.5446 20.6363 12.5565 19.972 13.3625C19.3077 14.1685 18.3838 14.7185 17.3586 14.9182C17.8792 14.4072 18.2925 13.7975 18.5744 13.1246C18.8562 12.4518 19.0009 11.7295 18.9999 11.0001V7.54321C19.6529 7.75018 20.3218 7.90299 20.9999 8.00009V8.00009Z" fill="#FEC093"/>
<path d="M14 19.5H19V23H14V19.5Z" fill="#E0E0DE"/>
<path d="M26.6855 30.4794C26.3308 30.5385 25.9666 30.4697 25.6579 30.2853C25.3492 30.1009 25.116 29.8128 24.9998 29.4725L21.6973 23.2769C21.9076 23.9055 21.9539 24.5774 21.8318 25.229C21.7098 25.8805 21.4234 26.4901 20.9998 27V31H11.9998V27C11.5701 26.4842 11.2808 25.8663 11.16 25.2059C11.0391 24.5456 11.0907 23.8652 11.3098 23.2306L7.95359 29.4725C7.82477 29.8513 7.5515 30.1639 7.19329 30.3422C6.83508 30.5205 6.42094 30.5501 6.04104 30.4244C5.66114 30.2988 5.34625 30.0282 5.16494 29.6715C4.98362 29.3148 4.95057 28.9009 5.07297 28.52L8.74422 19.3819C8.9673 18.8261 9.35166 18.3499 9.84779 18.0145C10.3439 17.6791 10.9291 17.4999 11.528 17.5H13.4998L16.4998 23L19.4998 17.5H21.4642C22.0648 17.5004 22.6514 17.6809 23.1483 18.0182C23.6452 18.3554 24.0296 18.8339 24.2517 19.3919L27.8811 28.52C27.9474 28.7274 27.9683 28.9466 27.9424 29.1628C27.9165 29.379 27.8444 29.587 27.731 29.7729C27.6176 29.9587 27.4655 30.118 27.2851 30.2399C27.1047 30.3618 26.9002 30.4435 26.6855 30.4794V30.4794Z" fill="#EC8C8C"/>
<path d="M4.63948 28.6881L5.00011 24H8.00011V28.8172C8.00011 29.2635 7.82282 29.6915 7.50723 30.0071C7.19164 30.3227 6.76361 30.5 6.3173 30.5C6.08543 30.5 5.85607 30.4521 5.6436 30.3593C5.43112 30.2664 5.24013 30.1307 5.08259 29.9606C4.92505 29.7905 4.80437 29.5896 4.72812 29.3706C4.65187 29.1517 4.62169 28.9193 4.63948 28.6881V28.6881Z" fill="#F59898"/>
<path d="M6.17631 16.7063C6.03501 16.7416 5.90345 16.8083 5.79133 16.9012C5.67922 16.9942 5.58941 17.1112 5.52855 17.2435C5.46769 17.3758 5.43732 17.5201 5.43969 17.6657C5.44207 17.8114 5.47711 17.9546 5.54225 18.0849L6 19.0001H4.20819C3.74246 19.0001 3.28313 18.8917 2.86656 18.6834L2.36831 18.4343C2.27684 18.3885 2.17519 18.3669 2.07303 18.3715C1.97086 18.3761 1.87157 18.4068 1.78457 18.4605C1.69757 18.5143 1.62576 18.5894 1.57596 18.6787C1.52615 18.768 1.50001 18.8686 1.5 18.9709V20.382C1.5 20.5677 1.55172 20.7498 1.64936 20.9077C1.747 21.0657 1.8867 21.1934 2.05281 21.2764L2.86656 21.6834C3.28313 21.8916 3.74246 22.0001 4.20819 22.0001H8V19.0001L7.31531 17.2884C7.22791 17.0701 7.06436 16.8908 6.85495 16.7838C6.64554 16.6768 6.40445 16.6493 6.17631 16.7063V16.7063Z" fill="#FEC9A3"/>
<path d="M5 22H8V24H5V22Z" fill="#E0E0DE"/>
<path d="M26.6856 30.4794C26.3309 30.5385 25.9667 30.4697 25.658 30.2853C25.3493 30.1009 25.1161 29.8128 24.9999 29.4725L21.6974 23.2769C21.9077 23.9055 21.954 24.5774 21.8319 25.229C21.7099 25.8805 21.4235 26.4901 20.9999 27V31H12.1643C16.2912 28.305 19.7731 24.885 22.6956 17.765C23.4061 18.0843 23.9644 18.6679 24.2518 19.3919L27.8812 28.52C27.9475 28.7274 27.9684 28.9466 27.9425 29.1628C27.9166 29.379 27.8445 29.587 27.7311 29.7729C27.6177 29.9587 27.4656 30.118 27.2852 30.2399C27.1048 30.3618 26.9003 30.4435 26.6856 30.4794V30.4794Z" fill="#E07F7F"/>
<path d="M23.5 29L18.5 28V21L23.5 22V29Z" fill="#A36548"/>
<path d="M25.5 29L30.5 28V21L25.5 22V29Z" fill="#8F4D2E"/>
<path d="M23.5 22H25.5V29H23.5V22Z" fill="#95573A"/>
<path d="M24.5 22C24.5 21.5809 24.3513 21.1753 24.0804 20.8555C23.8095 20.5357 23.4339 20.3223 23.0204 20.2534L18.5 19.5V21L23.5 22H24.5C24.5 21.5809 24.6487 21.1753 24.9196 20.8555C25.1905 20.5357 25.5661 20.3223 25.9796 20.2534L30.5 19.5V21L25.5 22H24.5Z" fill="#D4BD81"/>
<path d="M29.5822 28.9523L27.5822 29.2857C27.5106 29.2976 27.4372 29.2938 27.3672 29.2745C27.2972 29.2552 27.2322 29.2209 27.1768 29.174C27.1214 29.1271 27.0769 29.0686 27.0464 29.0027C27.0158 28.9369 27 28.8651 27 28.7925V26.9341C27 26.78 27.0546 26.6309 27.1542 26.5134C27.2538 26.3958 27.3918 26.3174 27.5438 26.2921L29.242 26.009C29.3353 25.9934 29.4308 25.9984 29.5219 26.0235C29.6131 26.0486 29.6977 26.0932 29.7698 26.1543C29.842 26.2155 29.8999 26.2915 29.9397 26.3773C29.9794 26.4631 30 26.5565 30 26.6511V28.4591C30 28.5775 29.958 28.692 29.8815 28.7823C29.805 28.8726 29.6989 28.9329 29.5822 28.9523Z" fill="#FEC9A3"/>
<path d="M14.25 8.5C14.1017 8.5 13.9567 8.54399 13.8333 8.6264C13.71 8.70881 13.6139 8.82594 13.5571 8.96299C13.5003 9.10003 13.4855 9.25083 13.5144 9.39632C13.5434 9.54181 13.6148 9.67544 13.7197 9.78033C13.8246 9.88522 13.9582 9.95665 14.1037 9.98559C14.2492 10.0145 14.4 9.99968 14.537 9.94291C14.6741 9.88615 14.7912 9.79002 14.8736 9.66668C14.956 9.54334 15 9.39834 15 9.25C14.9998 9.05115 14.9207 8.86051 14.7801 8.71991C14.6395 8.5793 14.4488 8.50022 14.25 8.5V8.5Z" fill="black"/>
<path d="M18.75 8.5C18.6017 8.5 18.4567 8.54399 18.3333 8.6264C18.21 8.70881 18.1139 8.82594 18.0571 8.96299C18.0003 9.10003 17.9855 9.25083 18.0144 9.39632C18.0434 9.54181 18.1148 9.67544 18.2197 9.78033C18.3246 9.88522 18.4582 9.95665 18.6037 9.98559C18.7492 10.0145 18.9 9.99968 19.037 9.94291C19.174 9.88615 19.2912 9.79002 19.3736 9.66668C19.456 9.54334 19.5 9.39834 19.5 9.25C19.4998 9.05115 19.4207 8.86051 19.2801 8.71991C19.1395 8.5793 18.9488 8.50022 18.75 8.5V8.5Z" fill="black"/>
<path d="M16.5 11.5C16.3674 11.4999 16.2403 11.4471 16.1466 11.3534C16.0529 11.2597 16.0001 11.1326 16 11H15C15 11.3978 15.158 11.7794 15.4393 12.0607C15.7206 12.342 16.1022 12.5 16.5 12.5C16.8978 12.5 17.2794 12.342 17.5607 12.0607C17.842 11.7794 18 11.3978 18 11H17C16.9999 11.1326 16.9471 11.2597 16.8534 11.3534C16.7597 11.4471 16.6326 11.4999 16.5 11.5Z" fill="black"/>
<path d="M30.8232 19.1187C30.7678 19.0718 30.7028 19.0376 30.6328 19.0183C30.5628 18.999 30.4894 18.9951 30.4178 19.007L25.8974 19.7604C25.5999 19.8097 25.3153 19.9176 25.0599 20.0778L24.7153 19.2078C24.5793 18.8585 24.3854 18.5346 24.1416 18.2499L24.272 17.0676C24.3055 16.7663 24.3231 16.4634 24.3248 16.1602C24.324 15.0523 24.0976 13.9562 23.6594 12.9386C23.2296 11.931 23.0346 10.8389 23.0891 9.74481L23.1742 8.01412C23.1794 7.90506 23.1848 7.79225 23.1848 7.68031C23.1822 5.90861 22.4769 4.21027 21.2237 2.9579C19.9705 1.70553 18.2717 1.00141 16.5 1C15.5945 1.00017 14.6985 1.18432 13.8664 1.54127C13.0343 1.89822 12.2833 2.42053 11.6592 3.0765C11.035 3.73247 10.5506 4.50842 10.2354 5.35726C9.92026 6.2061 9.78083 7.11014 9.82563 8.0145L9.91038 9.7395C9.91538 9.86831 9.92001 9.98994 9.92001 10.1103C9.92174 11.0827 9.72451 12.0451 9.34044 12.9384C8.78162 14.2395 8.57056 15.6635 8.72794 17.0707L8.85801 18.2367C8.70673 18.4135 8.57403 18.6054 8.46201 18.8094L7.77944 17.1031C7.70577 16.9187 7.59554 16.7511 7.45541 16.6103C7.31527 16.4696 7.14812 16.3587 6.964 16.2842C6.77988 16.2097 6.58261 16.1733 6.38404 16.177C6.18547 16.1808 5.98971 16.2247 5.80853 16.306C5.62736 16.3874 5.46451 16.5046 5.32979 16.6505C5.19507 16.7964 5.09126 16.9681 5.0246 17.1552C4.95793 17.3422 4.9298 17.5409 4.94189 17.7391C4.95398 17.9373 5.00604 18.1311 5.09494 18.3087L5.19101 18.5H4.2082C3.82015 18.4995 3.43748 18.4092 3.0902 18.2361L2.59195 17.9869C2.42424 17.9031 2.23788 17.8635 2.05057 17.8719C1.86325 17.8803 1.6812 17.9365 1.5217 18.0351C1.3622 18.1337 1.23055 18.2714 1.13924 18.4351C1.04794 18.5989 1.00001 18.7833 1.00001 18.9708V20.3819C0.999059 20.6607 1.07624 20.9342 1.2228 21.1713C1.36936 21.4084 1.57943 21.5997 1.8292 21.7236L2.64301 22.1305C3.12921 22.3729 3.66493 22.4993 4.2082 22.5H4.50001V23.9807L4.14082 28.65C4.11779 28.9499 4.15696 29.2512 4.25589 29.5352C4.35482 29.8192 4.51137 30.0797 4.71571 30.3004C4.92006 30.521 5.16779 30.6971 5.44338 30.8175C5.71897 30.9378 6.01646 31 6.31719 31C6.35419 31 6.39099 30.9991 6.42757 30.9972C6.45944 30.9987 6.49126 30.9999 6.52294 30.9999C6.93559 31 7.33829 30.8732 7.67647 30.6368C8.01465 30.4003 8.27197 30.0656 8.41357 29.678L10.696 25.4342C10.8319 26.0668 11.1065 26.6614 11.5 27.175V31H12.5V27C12.5 26.883 12.459 26.7698 12.3841 26.6799C11.807 25.9857 11.5287 25.091 11.6105 24.1919C11.6922 23.2928 12.1272 22.4629 12.8201 21.8841L12.1799 21.1159C11.952 21.3058 11.7439 21.5183 11.5587 21.75C11.5398 21.7694 11.5226 21.7903 11.507 21.8125L11.5059 21.8119L11.497 21.8274C11.4948 21.8309 11.4929 21.8348 11.4908 21.8384C11.2113 22.2066 10.9919 22.6167 10.8408 23.0536L8.50001 27.4062V21.3317L9.21051 19.5625C9.32947 19.2607 9.50848 18.9861 9.73669 18.7555C9.97097 18.5175 10.25 18.3281 10.5578 18.1985C10.8656 18.0688 11.196 18.0014 11.53 18H13.2032L16.0611 23.2394C16.1041 23.3183 16.1675 23.3841 16.2448 23.4299C16.322 23.4758 16.4102 23.5 16.5 23.5C16.5898 23.5 16.678 23.4758 16.7552 23.4299C16.8325 23.3841 16.8959 23.3183 16.9389 23.2394L18 21.2942V28C18 28.1156 18.04 28.2276 18.1133 28.317C18.1866 28.4064 18.2886 28.4676 18.4019 28.4903L20.5 28.9099V31H21.5V29.1099L23.413 29.4919C23.4255 29.4941 23.4834 29.5 23.5 29.5H24.4459L24.5419 29.6789C24.6857 30.0665 24.9446 30.4008 25.2839 30.6369C25.6232 30.8731 26.0266 30.9998 26.44 31C26.5504 31.0006 26.6607 30.9915 26.7696 30.9727C27.1225 30.9128 27.4533 30.7604 27.7282 30.531C28.0031 30.3017 28.2123 30.0037 28.3346 29.6672L29.6644 29.4456C29.8893 29.4086 30.0948 29.2956 30.2465 29.1254C30.3981 28.9552 30.4868 28.7381 30.4977 28.5104L30.5977 28.4903C30.7111 28.4677 30.8132 28.4065 30.8865 28.3171C30.9599 28.2277 31 28.1156 31 28V19.5C31 19.4274 30.9841 19.3557 30.9536 19.2899C30.9231 19.2241 30.8786 19.1657 30.8232 19.1187V19.1187ZM14.2857 17.8966C14.498 17.8024 14.6785 17.6487 14.8053 17.4541C14.9321 17.2595 14.9997 17.0323 15 16.8V15.2698C15.9765 15.5767 17.0236 15.5767 18 15.2698V16.8C18.0003 17.0322 18.068 17.2594 18.1947 17.454C18.3215 17.6485 18.502 17.8022 18.7143 17.8963L18.1125 19H14.8875L14.2857 17.8966ZM16.5 14.5C15.4395 14.4988 14.4228 14.077 13.6729 13.3271C12.923 12.5772 12.5012 11.5605 12.5 10.5V8.2615C13.4003 7.611 14.1404 6.76375 14.664 5.78419C16.3574 7.13968 18.3641 8.04816 20.5 8.42625V10.5C20.4988 11.5605 20.077 12.5772 19.3271 13.3271C18.5772 14.077 17.5605 14.4988 16.5 14.5V14.5ZM23.2572 18.7641L23.2664 18.7736C23.493 19.0016 23.6697 19.2742 23.7852 19.5742L24 20.1165C23.7298 19.9349 23.4238 19.8134 23.1027 19.7602L19.1923 19.1085L19.7968 18H21.465C21.7999 17.9996 22.1313 18.0671 22.4394 18.1984C22.7474 18.3298 23.0256 18.5222 23.2572 18.7641V18.7641ZM23.5495 21.5L21.2745 21.0451L18.9995 20.5901V20.0901L22.9378 20.7463C23.1484 20.7808 23.347 20.8679 23.515 20.9997C23.6829 21.1315 23.8149 21.3036 23.8985 21.5H23.5495ZM26.062 20.7466L30 20.0902V20.5902L27.6483 21.0606L25.4505 21.5H25.1015C25.1851 21.3037 25.317 21.1317 25.4849 21C25.6528 20.8683 25.8512 20.7811 26.0618 20.7466H26.062ZM3.0902 21.2361L2.27638 20.8292C2.19314 20.7879 2.12312 20.7241 2.07427 20.6451C2.02542 20.566 1.9997 20.4749 2.00001 20.3819V18.9708C1.9996 18.9537 2.00378 18.9368 2.01212 18.9218C2.02046 18.9068 2.03266 18.8944 2.04745 18.8857C2.06177 18.8764 2.07836 18.871 2.09547 18.8702C2.11258 18.8694 2.12959 18.8733 2.1447 18.8814L2.64301 19.1305C3.12921 19.3729 3.66493 19.4993 4.2082 19.5H6.00001C6.08524 19.5 6.16905 19.4782 6.24349 19.4367C6.31793 19.3952 6.38052 19.3354 6.42533 19.2628C6.47013 19.1903 6.49566 19.1076 6.49949 19.0225C6.50331 18.9373 6.48531 18.8526 6.44719 18.7764L5.98951 17.8609C5.95784 17.7976 5.9408 17.728 5.93964 17.6572C5.93848 17.5865 5.95323 17.5163 5.98281 17.452C6.01238 17.3877 6.05601 17.3309 6.1105 17.2857C6.16498 17.2406 6.22891 17.2082 6.29757 17.1911C6.40843 17.1637 6.52543 17.1773 6.62709 17.2292C6.72876 17.2812 6.80826 17.3681 6.85101 17.474L7.50001 19.0963V21.5H4.2082C3.82015 21.4995 3.43748 21.4092 3.0902 21.2361V21.2361ZM7.50001 22.5V23.5H5.50001V22.5H7.50001ZM5.13795 28.7265L5.46301 24.5H7.50001V28.8172C7.49954 29.1158 7.3862 29.4032 7.18272 29.6218C6.97923 29.8403 6.70065 29.9739 6.40282 29.9957C6.38403 29.9956 6.36525 29.9965 6.34657 29.9985C6.33669 29.9985 6.32713 30 6.31719 30C6.15422 30 5.99301 29.9663 5.84366 29.9011C5.69432 29.8359 5.56007 29.7405 5.44934 29.6209C5.33861 29.5013 5.25379 29.3601 5.2002 29.2062C5.14662 29.0523 5.12542 28.889 5.13795 28.7265ZM11.508 21.8131C11.518 21.7997 11.5286 21.7868 11.5398 21.7745C11.5296 21.7876 11.5196 21.8008 11.5095 21.8139L11.508 21.8131ZM9.77913 17.4724L9.72182 16.9586C9.58367 15.7236 9.76889 14.474 10.2593 13.3322C10.697 12.3145 10.9219 11.2179 10.92 10.11C10.92 9.97031 10.9148 9.83331 10.9094 9.69544L10.8244 7.96519C10.7868 7.20798 10.901 6.45089 11.1604 5.73851C11.4198 5.02612 11.8191 4.37283 12.3348 3.81708C12.8505 3.26134 13.4721 2.81439 14.1632 2.50253C14.8542 2.19067 15.6007 2.02021 16.3586 2.00118C17.1165 1.98216 17.8705 2.11495 18.5763 2.39174C19.2821 2.66854 19.9254 3.08374 20.4684 3.61291C21.0113 4.14207 21.4429 4.77451 21.7377 5.47298C22.0325 6.17146 22.1846 6.92186 22.185 7.68C22.185 7.76812 22.1804 7.86431 22.1756 7.96544L22.0907 9.69431C22.0286 10.9402 22.2507 12.1839 22.7402 13.3312C23.1251 14.2247 23.3241 15.1872 23.325 16.16C23.3233 16.4273 23.3076 16.6943 23.278 16.96L23.2212 17.4752C22.688 17.1647 22.0821 17.0007 21.465 17H19.2C19.1472 16.9993 19.0967 16.978 19.0594 16.9406C19.022 16.9033 19.0007 16.8528 19 16.8V14.8273C19.7596 14.3886 20.3904 13.7578 20.8292 12.9983C21.268 12.2387 21.4993 11.3772 21.5 10.5V8C21.5 7.87963 21.4566 7.76331 21.3777 7.67238C21.2989 7.58145 21.1898 7.52202 21.0707 7.505C18.8742 7.19167 16.8083 6.27327 15.1041 4.85256L14.8201 4.61587C14.7622 4.5676 14.6941 4.53306 14.621 4.51482C14.5478 4.49659 14.4715 4.49514 14.3977 4.51057C14.3239 4.52601 14.2545 4.55794 14.1948 4.60397C14.1351 4.65 14.0865 4.70894 14.0528 4.77637L13.8591 5.16387C13.3692 6.14244 12.6329 6.97652 11.7227 7.58394C11.6542 7.6296 11.598 7.69146 11.5592 7.76404C11.5203 7.83663 11.5 7.91768 11.5 8V10.5C11.5007 11.3772 11.732 12.2387 12.1708 12.9983C12.6096 13.7578 13.2404 14.3886 14 14.8273V16.8C13.9993 16.8528 13.978 16.9033 13.9407 16.9406C13.9033 16.978 13.8528 16.9993 13.8 17H11.53C10.9152 17.0019 10.3115 17.1648 9.77913 17.4724V17.4724ZM16.5 21.9558L15.4332 20H17.5668L16.5 21.9558ZM19 21.6099L23 22.4099V28.3901L19 27.5901V21.6099ZM24 22.5H25V28.5H24V22.5ZM26.598 29.9875C26.5458 29.9963 26.4929 30.0005 26.44 30C26.262 29.9998 26.0871 29.9533 25.9326 29.8649C25.7781 29.7766 25.6492 29.6495 25.5588 29.4962C25.5682 29.4951 25.5775 29.4936 25.5868 29.4919C25.5905 29.4912 25.5942 29.491 25.5979 29.4903H25.5987L25.6021 29.4896L26.6299 29.2841C26.7417 29.4843 26.9198 29.6393 27.1334 29.7225C26.9846 29.8612 26.7985 29.9533 26.598 29.9875V29.9875ZM29.5 28.4591L27.5 28.7925V26.9341C27.4999 26.8983 27.5126 26.8637 27.5357 26.8365C27.5588 26.8092 27.5908 26.7911 27.6261 26.7852L29.3244 26.5022C29.3328 26.5008 29.3414 26.5001 29.35 26.5C29.3899 26.5003 29.428 26.5163 29.4561 26.5446C29.4842 26.5729 29.5 26.6111 29.5 26.651L29.5004 28.459L29.5 28.4591ZM29.1599 25.5158L27.4616 25.7988C27.1926 25.8429 26.9481 25.9814 26.7719 26.1894C26.5957 26.3975 26.4993 26.6614 26.5 26.9341V28.2903L26 28.3903V22.4099L30 21.6099V25.7024C29.7548 25.5336 29.4536 25.4667 29.1599 25.5158H29.1599Z" fill="black"/>
</svg>
