<svg width="32" height="32" viewBox="0 0 32 32" fill="none" xmlns="http://www.w3.org/2000/svg">
<path fill-rule="evenodd" clip-rule="evenodd" d="M15.4948 25.8368C12.1047 25.6295 8.8583 23.5559 7.28006 20.5255C5.81542 17.7133 5.83846 14.1805 7.33542 11.3898C9.01126 8.26594 12.3354 6.36098 16.0148 6.19714C16.0148 6.19714 16.929 6.13858 17.5393 5.79202C19.3498 4.76322 19.6202 1.72642 17.6743 0.486418C17.1505 0.152658 16.5252 -0.00190234 15.9018 1.76635e-05C9.75494 0.0588977 3.81094 3.90018 1.31238 9.59907C-0.787466 14.3892 -0.350666 20.1981 2.50214 24.64C4.77254 28.1748 8.47526 30.7597 12.5828 31.6535C18.2039 32.8768 24.4302 30.7978 28.1876 26.4141C31.913 22.0672 33.0513 15.6416 30.9649 10.2474C29.7687 7.1549 27.6494 4.33474 24.8135 2.6381C24.6654 2.54946 24.5102 2.4765 24.3502 2.41826C27.203 4.86146 29.0116 8.48675 29.0116 12.5303C29.0116 19.88 23.0369 25.8468 15.6772 25.8468C15.617 25.8468 15.6109 25.8439 15.4948 25.8368Z" fill="#1292EE"/>
</svg>
