<svg width="99" height="32" viewBox="0 0 99 32" fill="none" xmlns="http://www.w3.org/2000/svg">
<g clip-path="url(#clip0)">
<path d="M36.0466 21.9723V10.1375H44.0492V12.3746H38.714V14.6971H43.4505V16.883H38.714V19.7352H44.4425V21.9723H36.0466Z" fill="#2A3B47"/>
<path d="M49.0727 19.8026C49.1983 19.8141 49.3435 19.8224 49.509 19.8282C49.6742 19.8339 49.8708 19.8368 50.0987 19.8368C51.4326 19.8368 52.4215 19.5008 53.0654 18.8291C53.7098 18.1574 54.0319 17.2295 54.0319 16.0455C54.0319 14.8045 53.7238 13.8653 53.1083 13.2278C52.4928 12.5901 51.5182 12.2713 50.1843 12.2713C50.002 12.2713 49.8139 12.2742 49.62 12.28C49.4262 12.2855 49.2438 12.2998 49.0727 12.3225V19.8026ZM56.7847 16.0455C56.7847 17.0701 56.6252 17.9638 56.306 18.7267C55.9867 19.4896 55.5335 20.1213 54.9466 20.6224C54.3597 21.1232 53.644 21.4989 52.8005 21.7495C51.9568 22 51.0106 22.1251 49.9619 22.1251C49.4832 22.1251 48.9246 22.1053 48.2862 22.0653C47.6478 22.0256 47.0208 21.9431 46.4052 21.8176V10.2902C47.0208 10.1767 47.6621 10.0995 48.3291 10.0598C48.9959 10.0199 49.5688 10 50.0475 10C51.0621 10 51.9828 10.1139 52.8091 10.3414C53.6354 10.5693 54.3451 10.928 54.938 11.4176C55.5307 11.9069 55.9867 12.5331 56.306 13.296C56.6252 14.0589 56.7847 14.9754 56.7847 16.0455Z" fill="#2A3B47"/>
<path d="M58.751 10.7506L61.2987 10.3407V12.9877H64.3598V15.1055H61.2987V18.2649C61.2987 18.7999 61.3929 19.2268 61.581 19.5458C61.7691 19.8645 62.1482 20.0239 62.7182 20.0239C62.9916 20.0239 63.2739 19.9983 63.5645 19.9471C63.8551 19.8959 64.1205 19.8245 64.3598 19.7337L64.7188 21.7145C64.4111 21.8399 64.0692 21.9481 63.6928 22.0389C63.3166 22.1301 62.8548 22.1756 62.3079 22.1756C61.6122 22.1756 61.0368 22.0818 60.5807 21.894C60.1246 21.7061 59.7599 21.444 59.4862 21.1084C59.2125 20.7724 59.0215 20.3653 58.9133 19.8873C58.8051 19.4092 58.751 18.8796 58.751 18.2991V10.7506Z" fill="#2A3B47"/>
<path d="M65.6627 17.5482C65.6627 16.7511 65.7853 16.0538 66.0303 15.4561C66.2754 14.8583 66.5975 14.3604 66.9963 13.9617C67.3957 13.5633 67.8543 13.2615 68.3731 13.0567C68.8916 12.8516 69.4247 12.7492 69.9718 12.7492C71.2484 12.7492 72.2576 13.1393 72.9982 13.9191C73.7394 14.699 74.1099 15.8462 74.1099 17.3604C74.1099 17.5083 74.1045 17.6705 74.0927 17.8468C74.0813 18.0235 74.0701 18.1799 74.0584 18.3166H68.2789C68.3359 18.8404 68.581 19.2558 69.0144 19.5633C69.4475 19.8708 70.0288 20.0244 70.7582 20.0244C71.2258 20.0244 71.6847 19.9815 72.1348 19.8964C72.5854 19.811 72.9527 19.7057 73.2378 19.5803L73.5797 21.6468C73.4431 21.715 73.2607 21.7835 73.0326 21.8516C72.8047 21.9201 72.551 21.9796 72.2716 22.0311C71.9925 22.0823 71.6933 22.1249 71.374 22.1591C71.0546 22.1934 70.7356 22.2103 70.4164 22.2103C69.607 22.2103 68.903 22.0907 68.3047 21.8516C67.706 21.6126 67.2104 21.2852 66.8168 20.8699C66.4237 20.4542 66.1328 19.9617 65.9447 19.3924C65.7566 18.8231 65.6627 18.2084 65.6627 17.5482ZM71.6475 16.5748C71.6363 16.3585 71.5991 16.1476 71.5367 15.9428C71.4737 15.738 71.3767 15.5556 71.2455 15.3963C71.1147 15.2369 70.9492 15.106 70.7499 15.0036C70.5504 14.9012 70.3024 14.8497 70.0059 14.8497C69.721 14.8497 69.4759 14.8983 69.2706 14.995C69.0656 15.0919 68.8944 15.2199 68.7576 15.3793C68.6208 15.5386 68.5154 15.7236 68.4413 15.9342C68.3674 16.1451 68.3132 16.3585 68.2789 16.5748H71.6475Z" fill="#2A3B47"/>
<path d="M79.5124 20.1953C79.7632 20.1953 80.0026 20.1895 80.2305 20.178C80.4586 20.1668 80.641 20.1495 80.7779 20.1268V18.1972C80.6754 18.1742 80.5213 18.1515 80.3161 18.1287C80.1108 18.106 79.9227 18.0945 79.7518 18.0945C79.5127 18.0945 79.2874 18.1089 79.0764 18.1374C78.8654 18.1659 78.6802 18.2199 78.5204 18.2996C78.361 18.3793 78.2358 18.4875 78.1445 18.6241C78.0532 18.7607 78.0077 18.9313 78.0077 19.1364C78.0077 19.5348 78.1416 19.811 78.4093 19.9646C78.6773 20.1182 79.0452 20.1953 79.5124 20.1953ZM79.3072 12.7492C80.0596 12.7492 80.6865 12.8346 81.1884 13.0055C81.6897 13.1761 82.0917 13.4209 82.3937 13.7399C82.6958 14.0587 82.9096 14.4455 83.0348 14.9012C83.1604 15.3566 83.2229 15.8631 83.2229 16.4209V21.715C82.8584 21.7947 82.3511 21.8887 81.7012 21.9969C81.0516 22.1051 80.2648 22.1591 79.3415 22.1591C78.7598 22.1591 78.233 22.1079 77.7595 22.0055C77.2867 21.9028 76.8791 21.7351 76.5372 21.5015C76.1951 21.2683 75.9329 20.9636 75.7505 20.5879C75.5678 20.2123 75.4771 19.7511 75.4771 19.2046C75.4771 18.681 75.5824 18.2369 75.7931 17.8727C76.0041 17.5083 76.2864 17.218 76.6397 17.0017C76.9933 16.7854 77.3978 16.6289 77.8539 16.5319C78.3097 16.4353 78.7829 16.387 79.2728 16.387C79.6035 16.387 79.897 16.4011 80.1537 16.4295C80.41 16.458 80.6184 16.4951 80.7779 16.5406V16.3015C80.7779 15.8689 80.6467 15.5217 80.3845 15.2596C80.1223 14.9978 79.6665 14.867 79.0166 14.867C78.5834 14.867 78.156 14.8983 77.734 14.9607C77.3122 15.0234 76.9472 15.1118 76.6397 15.2257L76.3148 13.1761C76.4628 13.1307 76.648 13.0823 76.8705 13.0311C77.0929 12.9799 77.3351 12.9342 77.5971 12.8945C77.8596 12.8545 78.1357 12.8206 78.4268 12.7921C78.7174 12.7636 79.0108 12.7492 79.3072 12.7492Z" fill="#2A3B47"/>
<path d="M90.4723 17.2081C90.4723 16.3886 90.3669 15.8078 90.1559 15.4664C89.9452 15.1246 89.5831 14.9541 89.0703 14.9541C88.9106 14.9541 88.7453 14.9624 88.5742 14.9797C88.4035 14.9966 88.238 15.0165 88.0786 15.0395V21.9729H85.5305V13.2974C85.7472 13.2405 86.0009 13.1806 86.2915 13.1182C86.5821 13.0555 86.8901 12.9985 87.2151 12.9473C87.5398 12.8961 87.873 12.8561 88.2154 12.8277C88.5573 12.7992 88.8936 12.7851 89.224 12.7851C89.8737 12.7851 90.4013 12.8677 90.8058 13.0328C91.2107 13.1979 91.5442 13.3941 91.8062 13.6219C92.1709 13.3601 92.59 13.155 93.0627 13.0072C93.536 12.859 93.9723 12.7851 94.3711 12.7851C95.0892 12.7851 95.6795 12.8846 96.141 13.084C96.6025 13.2833 96.9704 13.5649 97.2438 13.9294C97.5175 14.2936 97.7056 14.7262 97.8081 15.2273C97.9106 15.7281 97.9619 16.2859 97.9619 16.9009V21.9729H95.4141V17.2081C95.4141 16.3886 95.3087 15.8078 95.0977 15.4664C94.887 15.1246 94.5249 14.9541 94.0118 14.9541C93.875 14.9541 93.684 14.988 93.4389 15.0565C93.1941 15.1246 92.9917 15.2101 92.8322 15.3125C92.9119 15.5745 92.9631 15.8504 92.986 16.1409C93.0086 16.4312 93.0203 16.7413 93.0203 17.0715V21.9729H90.4723V17.2081Z" fill="#2A3B47"/>
<path fill-rule="evenodd" clip-rule="evenodd" d="M15.5148 25.8368C12.1203 25.6295 8.86975 23.5559 7.28947 20.5255C5.82293 17.7133 5.84601 14.1805 7.34488 11.3898C9.02291 8.26594 12.3513 6.36098 16.0355 6.19715C16.0355 6.19715 16.9509 6.13859 17.5619 5.79203C19.3748 4.76321 19.6456 1.72642 17.6971 0.486418C17.1726 0.152658 16.5465 -0.00190234 15.9224 1.76635e-05C9.76754 0.0588977 3.81586 3.90018 1.31407 9.59906C-0.788483 14.3892 -0.351118 20.1981 2.50537 24.6401C4.77869 28.1748 8.48619 30.7598 12.599 31.6535C18.2274 32.8767 24.4617 30.7978 28.224 26.414C31.9542 22.0672 33.094 15.6416 31.0049 10.2474C29.8071 7.15491 27.6849 4.33475 24.8456 2.6381C24.6972 2.54946 24.5418 2.4765 24.3816 2.41826C27.238 4.86145 29.049 8.48674 29.049 12.5303C29.049 19.88 23.0666 25.8468 15.6974 25.8468C15.6372 25.8468 15.6311 25.8439 15.5148 25.8368Z" fill="#1292EE"/>
</g>
<defs>
<clipPath id="clip0">
<rect width="98.0813" height="32" fill="white"/>
</clipPath>
</defs>
</svg>
